<svg width="700" height="280" viewBox="0 0 700 280" fill="none" xmlns="http://www.w3.org/2000/svg">
<path d="M133.558 276.216V204.324L135.828 196.757V41.2432L154.746 49.5676L42.7537 199.784L21.1877 182H213.39V220.973H0V183.514L135.071 3.78378H183.879V276.216H133.558Z" fill="url(#paint0_linear_579_4901)"/>
<path d="M350.442 280C328.245 280 308.571 274.072 291.419 262.216C274.267 250.108 260.773 233.459 250.936 212.27C241.351 190.829 236.558 166.36 236.558 138.865C236.558 111.369 241.351 87.2793 250.936 66.5946C260.52 45.6577 273.889 29.3874 291.041 17.7838C308.445 5.92793 328.245 0 350.442 0C372.891 0 392.691 5.92793 409.843 17.7838C426.995 29.3874 440.363 45.6577 449.948 66.5946C459.785 87.2793 464.704 111.369 464.704 138.865C464.704 166.613 459.785 191.081 449.948 212.27C440.363 233.459 426.995 250.108 409.843 262.216C392.691 274.072 372.891 280 350.442 280ZM350.442 238.757C364.315 238.757 375.791 234.342 384.872 225.514C393.952 216.685 400.763 204.703 405.303 189.568C410.095 174.432 412.491 157.405 412.491 138.486C412.491 119.568 410.221 102.793 405.681 88.1622C401.141 73.5315 394.205 62.0541 384.872 53.7297C375.791 45.4054 364.315 41.2432 350.442 41.2432C336.821 41.2432 325.345 45.5315 316.012 54.1081C306.931 62.4324 300.121 73.9099 295.581 88.5405C291.041 103.171 288.771 119.82 288.771 138.486C288.771 157.658 291.041 174.811 295.581 189.946C300.121 205.081 307.058 217.063 316.39 225.892C325.723 234.468 337.074 238.757 350.442 238.757Z" fill="url(#paint1_linear_579_4901)"/>
<path d="M620.168 276.216V204.324L622.438 196.757V41.2432L641.356 49.5676L529.364 199.784L507.798 182H700V220.973H486.61V183.514L621.681 3.78378H670.489V276.216H620.168Z" fill="url(#paint2_linear_579_4901)"/>
<defs>
<linearGradient id="paint0_linear_579_4901" x1="350" y1="0" x2="350" y2="280" gradientUnits="userSpaceOnUse">
<stop stop-color="#D2D2D2"/>
<stop offset="1" stop-color="#D2D2D2" stop-opacity="0"/>
</linearGradient>
<linearGradient id="paint1_linear_579_4901" x1="350" y1="0" x2="350" y2="280" gradientUnits="userSpaceOnUse">
<stop stop-color="#D2D2D2"/>
<stop offset="1" stop-color="#D2D2D2" stop-opacity="0"/>
</linearGradient>
<linearGradient id="paint2_linear_579_4901" x1="350" y1="0" x2="350" y2="280" gradientUnits="userSpaceOnUse">
<stop stop-color="#D2D2D2"/>
<stop offset="1" stop-color="#D2D2D2" stop-opacity="0"/>
</linearGradient>
</defs>
</svg>
