<svg width="181" height="44" viewBox="0 0 181 44" fill="none" xmlns="http://www.w3.org/2000/svg">
<path d="M17.9424 38.866C21.5712 32.818 31.8528 33.2212 39.1105 35.6404C46.368 38.0596 51.6096 33.0196 58.6656 31.81C66.7296 30.3988 75.6 31.0036 83.2608 33.826C87.696 35.4388 91.9296 37.858 96.768 38.2612C101.203 33.826 106.042 29.3908 111.888 26.1652C116.122 23.746 121.766 21.5284 126.403 23.746C129.629 25.1572 133.056 28.5844 135.878 26.77C137.088 25.9636 137.491 24.754 137.894 23.5444C141.926 12.658 152.611 3.78761 165.514 0.965212C170.755 -0.244388 176.198 -0.244389 181.44 0.562011V43.5028C123.581 40.882 64.3104 40.4788 0 40.4788C4.2336 35.0356 13.5072 33.6244 17.9424 38.866Z" fill="#D3D3D3" fill-opacity="0.2"/>
</svg>
