<svg width="215" height="43" viewBox="0 0 215 43" fill="none" xmlns="http://www.w3.org/2000/svg">
<path d="M0 43.0058C71.568 38.7722 143.136 37.361 214.906 38.5706C212.486 30.7082 201.398 31.313 192.528 28.8938C186.077 27.0794 181.843 21.8378 176.198 18.8138C170.554 15.7898 160.877 16.193 159.264 22.0394C158.861 7.92743 134.467 -2.35417 118.541 0.468226C102.614 3.49223 90.9216 15.5882 84.4704 28.6922C78.2208 24.6602 68.7456 24.8618 62.8992 29.297C55.6416 26.0714 45.7632 28.4906 40.5216 33.9338C35.6832 28.289 24.7968 28.289 19.9584 33.9338C18.5472 35.5466 17.5392 37.7642 15.5232 38.7722C10.8864 41.1914 3.2256 39.377 0 43.0058Z" fill="#D3D3D3" fill-opacity="0.2"/>
</svg>
