<svg width="242" height="54" viewBox="0 0 242 54" fill="none" xmlns="http://www.w3.org/2000/svg">
<path d="M0.8064 0C5.04 1.6128 7.6608 5.8464 8.8704 9.8784C8.8704 10.2816 9.2736 10.8864 9.6768 11.2896C10.08 11.4912 10.6848 11.2896 11.088 11.2896C13.5072 11.088 15.9264 10.4832 18.144 11.2896C20.16 11.8944 21.3696 13.7088 22.176 15.5232C22.9824 17.3376 23.184 19.152 23.9904 20.9664C25.2 24.192 27.8208 26.8128 31.0464 28.6272C31.8528 29.0304 32.8608 29.4336 33.6672 29.4336C34.6752 29.4336 35.4816 28.4256 36.4896 28.0224C39.1104 26.6112 42.336 27.6192 45.1584 28.4256C45.5616 28.4256 46.1664 28.8288 46.5696 28.6272C48.384 28.4256 47.9808 26.0064 49.1904 24.5952C50.1984 23.3856 52.416 23.5872 54.2304 23.5872C58.464 23.7888 60.48 19.5552 62.6976 17.136C64.7136 14.9184 67.3344 12.7008 70.56 12.4992C72.3744 12.4992 74.1888 12.9024 75.8016 12.096C77.4144 11.2896 77.8176 9.4752 78.624 7.8624C80.8416 3.024 87.4944 0.201603 93.3408 0.806403C99.3888 1.6128 104.429 5.2416 107.251 10.08C108.259 11.6928 109.066 13.7088 110.275 15.12C111.485 16.7328 113.501 17.9424 115.718 17.7408C118.138 17.7408 119.952 15.9264 122.17 14.9184C125.194 13.7088 129.024 14.3136 131.846 15.9264C134.669 17.5392 136.886 19.9584 138.701 22.3776C140.112 24.192 141.322 26.208 143.136 27.6192C144.95 29.0304 147.571 30.0384 149.99 29.4336C151.805 29.0304 153.216 27.6192 154.627 26.8128C158.054 24.7968 162.49 24.5952 166.118 26.0064C168.538 27.0144 170.554 28.8288 172.771 30.0384C178.013 33.0624 182.045 29.6352 187.488 31.6512C189.706 32.4576 191.722 33.8688 193.939 34.6752C197.971 35.8848 200.995 33.6672 204.826 33.0624C208.858 32.256 213.091 32.0544 217.325 31.8528C221.558 31.8528 225.792 31.8528 230.026 32.6592C233.654 33.0624 238.291 35.0784 241.92 34.8768C161.078 37.296 80.2368 43.344 0 53.2224V0H0.8064Z" fill="#D3D3D3" fill-opacity="0.2"/>
</svg>
