<svg width="228" height="34" viewBox="0 0 228 34" fill="none" xmlns="http://www.w3.org/2000/svg">
<path d="M24.9984 27.2966C26.4096 21.047 33.0624 21.047 40.32 20.4422C47.5776 19.8374 54.8352 21.8534 61.8912 23.2646C64.3104 23.6678 67.1328 24.071 69.1488 23.063C71.7696 21.6518 72.3744 18.6278 74.592 16.6118C80.0352 11.5718 89.9136 17.4182 97.776 15.8054C105.84 14.1926 109.066 5.12059 116.323 1.49179C126.202 -3.14501 137.693 3.91099 146.16 10.5638C154.426 17.2166 166.32 24.071 175.997 18.8294C179.222 17.015 181.843 13.991 185.674 13.3862C194.141 12.1766 197.77 23.063 205.43 26.087C210.269 27.9014 215.914 26.2886 221.357 26.4902C226.8 26.4902 229.219 28.9094 227.405 33.3446C151.805 28.3046 75.8016 27.095 0 30.119C7.2576 24.8774 19.7569 21.047 25.4017 27.4982L24.9984 27.2966Z" fill="#D3D3D3" fill-opacity="0.2"/>
</svg>
