<svg width="92" height="40" viewBox="0 0 92 40" fill="none" xmlns="http://www.w3.org/2000/svg">
<path d="M10.7605 39.7465C13.0036 39.7328 16.6742 39.7328 18.9172 39.7465C21.1603 39.7603 19.3251 39.7715 14.8389 39.7715C10.3527 39.7715 8.5175 39.7603 10.7605 39.7465Z" fill="#B2C0C5" stroke="#B2C0C5" stroke-width="0.0921659"/>
<path d="M75.6222 26.9019C74.8222 26.8268 73.2265 26.6914 69.7236 26.4014C67.348 26.2047 67.4055 26.217 66.8062 25.7717C66.401 25.4705 66.2995 25.3504 66.3812 25.2687C66.5455 25.1044 66.3236 24.9077 66.1431 25.0576C66.036 25.1464 65.8646 25.0564 65.2405 24.5832C64.8168 24.262 62.9356 22.8415 61.06 21.4264C59.1845 20.0114 56.696 18.1318 55.5301 17.2496C54.3642 16.3674 52.2904 14.8011 50.9218 13.769C49.5531 12.7369 47.8628 11.4555 47.1656 10.9215L45.8978 9.95059L45.3222 10.396C44.7896 10.8083 33.0471 19.7962 29.2628 22.6882C28.3504 23.3855 27.0251 24.3986 26.3177 24.9395L25.0316 25.9229L23.6449 26.0445C22.3072 26.1617 20.8502 26.3013 17.9264 26.5921C17.166 26.6678 16.2743 26.7699 15.9448 26.8192C15.6153 26.8684 15.2731 26.9096 15.1845 26.9106C14.9502 26.9133 14.9872 26.7042 15.2495 26.5438C15.4518 26.42 16.1774 25.8786 17.696 24.7184C17.9748 24.5054 18.4036 24.1652 18.649 23.9625C18.8943 23.7597 19.131 23.6161 19.1749 23.6432C19.2187 23.6703 19.3192 23.5942 19.3979 23.474C19.4766 23.3538 19.9159 22.9688 20.3741 22.6185C20.8324 22.2682 21.5876 21.6839 22.0525 21.3201C22.5174 20.9563 22.9197 20.6649 22.9466 20.6724C22.9735 20.68 23.1238 20.5629 23.2805 20.4122C23.4372 20.2616 23.8312 19.9433 24.1561 19.7051C24.481 19.4668 25.037 19.0423 25.3918 18.7617C26.8014 17.6472 27.3163 17.2824 27.441 17.3098C27.6162 17.3483 27.8535 17.1416 27.7986 16.9984C27.7618 16.9026 28.6625 16.129 28.8109 16.129C28.837 16.129 29.1104 15.9251 29.4186 15.6758C29.7659 15.3947 30.0326 15.2432 30.1206 15.277C30.2225 15.3162 30.2467 15.2901 30.2061 15.1846C30.1656 15.0789 30.2964 14.9387 30.6731 14.6847C30.961 14.4906 31.4914 14.0829 31.8517 13.7788C32.2121 13.4746 32.9124 12.9147 33.4077 12.5345C33.903 12.1544 34.5624 11.6421 34.8731 11.3962C35.1838 11.1503 35.5482 10.892 35.6831 10.8221C35.8179 10.7522 35.9423 10.6575 35.9596 10.6116C35.9768 10.5657 36.4471 10.1844 37.0047 9.76432C37.5623 9.34422 38.1709 8.87289 38.3572 8.71685C38.6824 8.44432 39.2351 8.01741 40.4095 7.13114C40.7107 6.90386 41.0624 6.61252 41.191 6.48395C41.3196 6.35538 41.5398 6.19068 42.1485 5.73897C42.2657 5.68561 42.7683 5.3057 43.2657 4.89473C43.763 4.48376 44.2207 4.14745 44.2827 4.14745C44.3447 4.14745 44.4745 4.05916 44.5711 3.95123C44.6677 3.8433 45.0432 3.53501 45.4056 3.26616C46.1635 2.70386 46.2678 2.70072 46.9126 3.22008C47.1407 3.40386 47.5747 3.73943 47.877 3.96598C48.1793 4.19252 48.4974 4.44008 48.5838 4.51611C48.6702 4.59215 48.9206 4.78865 49.1401 4.9528C49.3597 5.11694 49.8918 5.52432 50.3227 5.85805C51.4241 6.71114 51.481 6.75547 52.3043 7.40183C52.7098 7.72026 53.3689 8.22542 53.7689 8.52441C54.1689 8.8234 54.6292 9.20515 54.792 9.3727C54.9548 9.54026 55.1128 9.67741 55.1433 9.67741C55.2396 9.67741 56.3553 10.4829 56.5369 10.6835C56.6326 10.7891 56.745 10.8756 56.7869 10.8756C56.8287 10.8756 57.3034 11.2299 57.8419 11.663C58.3803 12.0961 58.9306 12.5213 59.0648 12.6077C59.199 12.6942 59.444 12.8987 59.6091 13.0621C59.7742 13.2255 60.1319 13.5016 60.404 13.6757C60.6761 13.8498 60.9846 14.0844 61.0896 14.1971C61.1946 14.3098 61.361 14.4485 61.4594 14.5051C61.6154 14.5951 61.922 14.8259 63.372 15.9447C63.5363 16.0714 63.8545 16.3203 64.0793 16.4977C64.8062 17.0715 65.5478 17.6452 65.8066 17.8341C66.8513 18.5963 67.5405 19.1569 67.4921 19.2053C67.4606 19.2369 67.4824 19.2627 67.5405 19.2627C67.5986 19.2627 67.8483 19.4182 68.0953 19.6083C69.0942 20.3769 69.5321 20.7175 70.2328 21.2705C70.6364 21.589 71.5372 22.2764 72.2345 22.798C72.9318 23.3195 73.5593 23.8157 73.6289 23.9007C73.6985 23.9857 73.8095 24.0553 73.8757 24.0553C73.9419 24.0553 74.0775 24.159 74.1772 24.2857C74.2769 24.4124 74.386 24.5161 74.4197 24.5161C74.4889 24.5161 75.189 25.0525 76.1085 25.8101C76.4493 26.091 76.8422 26.3926 76.9817 26.4804C77.1211 26.5683 77.2351 26.7222 77.2351 26.8224C77.2351 27.03 77.0726 27.038 75.6222 26.9019Z" fill="#003246" stroke="#003246" stroke-width="0.0921659"/>
<path d="M80.5442 27.1493C80.4986 27.1037 79.3306 27.0149 78.6953 27.0087C78.3263 27.0051 78.1942 26.9463 77.7567 26.5898C77.4767 26.3617 77.1862 26.1751 77.1113 26.1751C77.0364 26.1751 75.302 24.8816 73.2572 23.3008C71.2124 21.72 68.378 19.53 66.9587 18.4343C65.5393 17.3385 62.5324 15.0158 60.2766 13.2729C58.0209 11.5299 55.2835 9.41529 54.1937 8.57381C50.4572 5.68893 48.9845 4.54911 47.6038 3.47344C46.8435 2.88109 46.2006 2.39658 46.1753 2.39676C46.1499 2.39694 44.9679 3.29621 43.5485 4.39519C40.2546 6.94552 32.4758 12.976 30.1384 14.7913C29.1499 15.559 28.0508 16.4115 27.696 16.6857C27.3412 16.9599 25.188 18.6243 22.9111 20.3843C20.6342 22.1443 18.7471 23.5777 18.7176 23.5698C18.6183 23.543 18.2056 23.8063 17.9081 24.0862C17.7459 24.2387 17.4288 24.4911 17.2035 24.6472C16.9781 24.8032 16.2964 25.3115 15.6885 25.7768C14.8928 26.3859 14.4966 26.631 14.2733 26.6523C14.0859 26.6703 13.9724 26.7276 13.9863 26.7972C14.0034 26.8824 13.798 26.9124 13.1983 26.9124C12.7295 26.9124 12.3443 26.9554 12.2855 27.0142C12.1813 27.1183 11.4287 27.0442 11.4287 26.9298C11.4287 26.851 12.0886 26.2673 12.1777 26.2673C12.2165 26.2673 12.3022 26.1559 12.3683 26.0198C12.4345 25.8837 12.5992 25.7429 12.7344 25.7072C12.8696 25.6714 13.2636 25.4175 13.61 25.1428C14.4627 24.4667 16.351 23.0451 16.7473 22.7809C16.9243 22.6629 17.294 22.3416 17.5689 22.0666C17.8438 21.7917 18.1346 21.5668 18.2152 21.5668C18.2957 21.5668 18.5707 21.3905 18.8262 21.1751C19.0817 20.9597 19.574 20.576 19.92 20.3226C20.6227 19.8079 21.9285 18.811 23.1799 17.834C23.6361 17.4778 24.1941 17.0625 24.42 16.9111C24.6458 16.7598 25.0973 16.3768 25.4234 16.0599C25.7494 15.743 26.0837 15.4839 26.1662 15.4839C26.2487 15.4839 26.5644 15.2859 26.8678 15.0439C27.1712 14.802 27.5096 14.5428 27.6199 14.4679C28.2795 14.0197 29.6062 12.9443 29.688 12.7916C29.7412 12.6923 29.9368 12.5475 30.1228 12.4698C30.3088 12.3922 30.6476 12.1747 30.8757 11.9866C31.1038 11.7985 31.4864 11.5117 31.7259 11.3494C31.9655 11.1871 32.3643 10.8481 32.6122 10.5962C32.8601 10.3443 33.1105 10.1382 33.1684 10.1382C33.2264 10.1382 33.589 9.8998 33.9742 9.60828C34.3595 9.31676 34.7646 9.01612 34.8744 8.94008C35.7456 8.33713 36.6047 7.65464 36.9183 7.3163C37.1242 7.09418 37.353 6.91243 37.4269 6.91243C37.5007 6.91243 37.7556 6.75685 37.9933 6.56681C38.4838 6.17455 38.962 5.81059 42.166 3.39049C42.5209 3.12247 42.9603 2.74764 43.1426 2.55759C43.3249 2.36754 43.5248 2.21197 43.5869 2.21197C43.6489 2.21197 44.2255 1.8116 44.8682 1.32229C45.511 0.832981 46.1054 0.414457 46.1889 0.392337C46.3716 0.34395 46.5991 0.483027 47.7421 1.34164C48.2236 1.7034 48.6799 2.02211 48.7559 2.04985C49.0329 2.15095 50.7351 3.52247 50.7363 3.64542C50.7369 3.71501 50.9241 3.89694 51.1522 4.04985C51.9274 4.56948 52.8037 5.22671 52.9529 5.40026C53.0055 5.46146 53.5032 5.84893 54.0588 6.26118C54.9371 6.9128 55.6886 7.48118 57.0218 8.50229C57.2038 8.64165 57.3905 8.75575 57.4366 8.75575C57.6535 8.75575 62.355 12.4418 62.3241 12.5876C62.3096 12.6559 62.4548 12.7922 62.6467 12.8902C62.8386 12.9883 63.13 13.1869 63.2944 13.3315C64.0475 13.9941 64.34 14.2116 64.5552 14.2695C64.6828 14.3038 66.4242 15.5896 68.4249 17.1269C70.9826 19.0922 72.0472 19.9621 72.5347 20.4822C72.5347 20.5224 72.7524 20.7008 73.0186 20.8788C73.804 21.4039 74.4743 21.8998 75.1614 22.4639C75.5163 22.7551 75.9733 23.0788 76.1771 23.1831C76.8336 23.5192 81.187 26.9268 81.1345 27.0635C81.0906 27.1778 80.6384 27.2435 80.5442 27.1493Z" fill="#FEAE01" stroke="#FEAE01" stroke-width="0.0921659"/>
<path d="M66.1242 25.2454C66.0292 25.0918 66.2429 24.9155 66.37 25.0427C66.4764 25.149 66.4099 25.3456 66.2675 25.3456C66.2228 25.3456 66.1583 25.3005 66.1242 25.2454Z" fill="#12323C" stroke="#12323C" stroke-width="0.0921659"/>
<path d="M50.0429 24.908C50.5942 24.8887 50.9414 24.8363 50.9862 24.7659C51.0347 24.6894 51.0575 24.7051 51.0584 24.8157C51.0597 24.9601 50.9611 24.9749 50.1151 24.9578L49.1704 24.9387L50.0429 24.908Z" fill="#20332E" stroke="#20332E" stroke-width="0.0921659"/>
<path d="M75.9328 23.0578C75.7996 22.9728 75.4056 22.6705 75.0572 22.3861C74.3603 21.8171 73.7563 21.3703 73.0183 20.8781C72.7521 20.7005 72.5344 20.5224 71.9814 20.1002C71.9814 19.9337 72.1762 19.9863 72.5258 20.2472C73.6348 21.0746 76.3132 23.1532 76.3132 23.1863C76.3132 23.2594 76.1765 23.2133 75.9328 23.0578Z" fill="#F3B43A" stroke="#F3B43A" stroke-width="0.0921659"/>
<path d="M33.1383 10.0595C33.1865 10.0162 33.765 9.57132 34.424 9.07095C35.083 8.57058 35.9316 7.92358 36.3098 7.63307C37.0177 7.08938 37.291 6.99086 36.8137 7.4515C36.5801 7.67694 35.4858 8.51685 34.8743 8.94008C34.7644 9.01611 34.3594 9.31676 33.9741 9.60828C33.5889 9.8998 33.2235 10.1382 33.1622 10.1382C33.0937 10.1382 33.0844 10.1079 33.1383 10.0595Z" fill="#F3B43A" stroke="#F3B43A" stroke-width="0.0921659"/>
<path d="M57.0215 8.50229C55.6883 7.48118 54.9368 6.91279 54.0586 6.26118C53.5029 5.84892 53.0052 5.46146 52.9526 5.40026C52.8637 5.29685 52.6678 5.14219 51.8073 4.49694C51.6243 4.35971 51.2983 4.13795 51.0828 4.00431C50.7049 3.76984 50.581 3.59445 50.7931 3.59445C50.8493 3.59445 51.5854 4.12671 52.4291 4.77722C54.3699 6.27371 55.0806 6.82007 56.4284 7.85178C57.0241 8.30772 57.5114 8.69759 57.5114 8.71823C57.5114 8.81611 57.3225 8.73289 57.0215 8.50229Z" fill="#F3B43A" stroke="#F3B43A" stroke-width="0.0921659"/>
<path d="M12.2999 27.0117C12.3336 26.957 12.5524 26.9124 12.786 26.9124C13.3104 26.9124 13.2744 26.9605 12.6862 27.046C12.3752 27.0911 12.2573 27.0806 12.2999 27.0117Z" fill="#F3B43A" stroke="#F3B43A" stroke-width="0.0921659"/>
<path d="M37.3781 6.83446C37.4263 6.7916 37.8182 6.48893 38.2491 6.16174C38.6799 5.83455 39.65 5.09197 40.4047 4.51151C42.4851 2.9116 43.1753 2.40948 43.226 2.45907C43.2926 2.52423 43.0022 2.75815 40.6414 4.54257C38.8955 5.8622 38.4185 6.2269 37.9934 6.56681C37.7557 6.75685 37.5003 6.91243 37.4258 6.91243C37.3445 6.91243 37.3255 6.88128 37.3781 6.83446Z" fill="#F3B43A" stroke="#F3B43A" stroke-width="0.0921659"/>
<path d="M12.6774 25.6376C12.7256 25.5955 13.0346 25.3588 13.3641 25.1118C14.0265 24.6151 17.3982 22.0565 17.5807 21.912C17.6578 21.8509 17.6959 21.8533 17.6959 21.9192C17.6959 22.0217 17.2221 22.4145 15.9271 23.3851C15.5059 23.7009 14.645 24.3541 14.014 24.8368C13.3831 25.3194 12.8045 25.7143 12.7283 25.7143C12.6459 25.7143 12.6254 25.6832 12.6774 25.6376Z" fill="#F3B43A" stroke="#F3B43A" stroke-width="0.0921659"/>
<path d="M79.7237 27.2746C79.1914 27.2348 78.6209 27.1811 78.4558 27.1552C78.1404 27.1058 76.9627 26.2505 77.1323 26.194C77.1864 26.1759 77.4636 26.351 77.7483 26.5829C78.2057 26.9556 78.3213 27.0058 78.7414 27.0155C79.0028 27.0215 79.2498 27.0208 79.29 27.0141C79.3303 27.0074 79.7403 27.0476 80.2011 27.1037C80.8851 27.1868 81.0531 27.1828 81.116 27.082C81.2012 26.9456 81.4792 27.0636 81.5462 27.2646C81.587 27.3872 81.2536 27.3891 79.7237 27.2746Z" fill="#F3B43A" stroke="#F3B43A" stroke-width="0.0921659"/>
<path d="M30.0585 12.3992C30.2998 12.1579 32.6747 10.4321 32.713 10.4703C32.7709 10.5282 32.315 10.9289 31.705 11.3566C31.4769 11.5165 31.0687 11.8263 30.7979 12.0449C30.5271 12.2635 30.2403 12.4424 30.1605 12.4424C30.0806 12.4424 30.0347 12.4229 30.0585 12.3992Z" fill="#F3B43A" stroke="#F3B43A" stroke-width="0.0921659"/>
<path d="M18.0723 21.5355C18.1283 21.4898 20.6822 19.538 22.0739 18.4773C24.7858 16.4104 25.394 15.964 25.4379 16.0086C25.4945 16.0659 24.921 16.5705 24.3967 16.9246C24.1836 17.0686 23.6361 17.4778 23.1799 17.834C21.9285 18.811 20.6227 19.8079 19.92 20.3226C19.574 20.576 19.0817 20.9597 18.8262 21.1751C18.5707 21.3905 18.288 21.5668 18.1978 21.5668C18.1077 21.5668 18.0512 21.5527 18.0723 21.5355Z" fill="#F3B43A" stroke="#F3B43A" stroke-width="0.0921659"/>
<path d="M63.992 13.9212C63.7482 13.7207 63.4242 13.4468 63.2721 13.3125C63.1201 13.1782 62.8401 12.9889 62.65 12.8918C62.3209 12.7236 62.1907 12.5345 62.4039 12.5345C62.4947 12.5345 63.8014 13.4922 64.4703 14.0489C64.6752 14.2194 64.7065 14.2799 64.5911 14.2824C64.5055 14.2842 64.2359 14.1216 63.992 13.9212Z" fill="#F3B43A" stroke="#F3B43A" stroke-width="0.0921659"/>
<path d="M26.083 15.445C26.083 15.4238 26.8399 14.8374 27.765 14.1421C28.6902 13.4468 29.4989 12.837 29.5623 12.7871C29.6388 12.7268 29.6775 12.7284 29.6775 12.7919C29.6775 12.8865 29.3477 13.1617 28.1637 14.0553C27.8278 14.3087 27.274 14.7336 26.9331 14.9994C26.3965 15.418 26.083 15.5823 26.083 15.445Z" fill="#F3B43A" stroke="#F3B43A" stroke-width="0.0921659"/>
<path d="M10.9165 27.1806C10.8407 27.0579 11.1112 26.7957 11.9125 26.2157C12.2138 25.9977 12.3503 25.9409 12.3503 26.0337C12.3503 26.1079 12.274 26.2095 12.1808 26.2593C11.9423 26.387 11.4286 26.8471 11.4286 26.933C11.5515 26.9568 11.9509 27.1804 11.5899 27.1902C11.4758 27.191 11.2939 27.2153 11.1856 27.2443C11.0734 27.2745 10.9575 27.247 10.9165 27.1806Z" fill="#F3B43A" stroke="#F3B43A" stroke-width="0.0921659"/>
<path d="M77.2966 27.0353C77.2628 27.0015 77.2351 26.8988 77.2351 26.807C77.2351 26.7152 77.1211 26.5683 76.9817 26.4804C76.8422 26.3926 76.4493 26.091 76.1085 25.8101C75.1889 25.0525 74.4889 24.5161 74.4196 24.5161C74.386 24.5161 74.2769 24.4124 74.1771 24.2857C74.0774 24.159 73.9418 24.0553 73.8757 24.0553C73.8095 24.0553 73.6984 23.9857 73.6289 23.9007C73.5593 23.8157 72.9318 23.3195 72.2345 22.798C71.5371 22.2764 70.6364 21.589 70.2327 21.2705C69.5321 20.7175 69.0942 20.3769 68.0953 19.6083C67.8483 19.4182 67.5985 19.2627 67.5405 19.2627C67.4824 19.2627 67.4606 19.2369 67.4921 19.2053C67.5405 19.1569 66.9029 18.6377 65.8082 17.8341C65.5467 17.6421 65.0964 17.2934 64.2012 16.5898C63.911 16.3617 63.5385 16.0714 63.3735 15.9447C63.2084 15.818 62.7504 15.4654 62.3558 15.1613C61.9611 14.8571 61.5577 14.5618 61.4594 14.5051C61.361 14.4485 61.1946 14.3098 61.0896 14.1971C60.9846 14.0844 60.676 13.8498 60.404 13.6757C60.1319 13.5016 59.7742 13.2255 59.609 13.0621C59.444 12.8987 59.199 12.6942 59.0648 12.6077C58.9306 12.5213 58.3803 12.0961 57.8419 11.663C57.3034 11.2299 56.8287 10.8756 56.7868 10.8756C56.745 10.8756 56.6325 10.7891 56.5369 10.6835C56.3553 10.4829 55.2395 9.6774 55.1432 9.6774C55.1127 9.6774 54.9548 9.54026 54.792 9.3727C54.6292 9.20515 54.1689 8.8234 53.7689 8.52441C53.3689 8.22542 52.7098 7.72026 52.3042 7.40183C51.481 6.75547 51.4241 6.71114 50.3227 5.85805C49.8918 5.52432 49.3596 5.11694 49.1401 4.9528C48.9206 4.78865 48.6701 4.59215 48.5838 4.51611C48.4973 4.44008 48.1793 4.19252 47.877 3.96598C47.5747 3.73943 47.1407 3.40386 46.9125 3.22008C46.2677 2.70072 46.1635 2.70386 45.4055 3.26616C45.0431 3.53501 44.6677 3.8433 44.5711 3.95123C44.4745 4.05916 44.3447 4.14745 44.2827 4.14745C44.2206 4.14745 43.763 4.48376 43.2656 4.89473C42.7683 5.3057 42.2656 5.68561 41.6802 6.11805C41.5397 6.19068 41.3195 6.35538 41.191 6.48395C41.0624 6.61252 40.7107 6.90386 40.4095 7.13114C39.235 8.0174 38.6824 8.44432 38.3571 8.71685C38.1709 8.87289 37.5623 9.34422 37.0047 9.76432C36.4471 10.1844 35.9768 10.5657 35.9595 10.6116C35.9423 10.6575 35.8179 10.7522 35.683 10.8221C35.5482 10.892 35.1838 11.1503 34.8731 11.3962C34.5624 11.6421 33.903 12.1544 33.4077 12.5345C32.9124 12.9147 32.2121 13.4746 31.8517 13.7788C31.4913 14.0829 30.9609 14.4906 30.6731 14.6847C30.2964 14.9387 30.1655 15.0789 30.2061 15.1846C30.2466 15.2901 30.2225 15.3162 30.1206 15.277C30.0325 15.2432 29.7659 15.3947 29.4185 15.6758C29.1104 15.9251 28.837 16.129 28.8109 16.129C28.6625 16.129 27.7618 16.9026 27.7985 16.9984C27.8535 17.1416 27.6161 17.3483 27.441 17.3098C27.3163 17.2824 26.8014 17.6472 25.3918 18.7617C25.037 19.0423 24.4809 19.4668 24.156 19.7051C23.8312 19.9433 23.4371 20.2616 23.2805 20.4122C23.1238 20.5629 22.9735 20.68 22.9465 20.6724C22.9196 20.6649 22.5173 20.9563 22.0524 21.3201C21.5876 21.6839 20.8324 22.2682 20.3741 22.6185C19.9159 22.9688 19.4766 23.3538 19.3979 23.474C19.3192 23.5942 19.2187 23.6703 19.1748 23.6432C19.131 23.6161 18.8943 23.7597 18.6489 23.9625C18.4036 24.1652 17.9747 24.5054 17.6959 24.7184C16.1773 25.8786 15.4518 26.42 15.2495 26.5438C15.1252 26.6198 15.0234 26.7294 15.0233 26.7874C15.0231 26.9178 14.8089 27.0046 14.4873 27.0046C14.2531 27.0046 14.2582 26.9943 14.6091 26.7558C14.9493 26.5247 19.6516 22.9115 24.8388 18.8956C26.0554 17.9536 27.3411 16.959 27.6959 16.6851C28.0508 16.4111 29.1499 15.559 30.1383 14.7913C32.4758 12.976 40.2546 6.94552 43.5485 4.39519C44.9678 3.29621 46.1499 2.39694 46.1752 2.39676C46.2006 2.39657 46.8434 2.88109 47.6038 3.47344C48.9844 4.54911 50.4571 5.68893 54.1936 8.57381C55.2835 9.41528 58.0208 11.5299 60.2766 13.2729C62.5324 15.0158 65.5393 17.3384 66.9586 18.4342C72.6717 22.8447 77.4077 26.5138 77.7493 26.7941L78.1107 27.0906L77.7344 27.0936C77.5274 27.0953 77.3304 27.0691 77.2966 27.0353Z" fill="#12323C" stroke="#12323C" stroke-width="0.0921659"/>
<path d="M43.5024 2.17888C43.5024 2.16063 44.1247 1.67906 44.8854 1.10864L46.2683 0.0715942L46.5194 0.236018C47.0768 0.601271 48.7648 1.95731 48.719 2.00311C48.692 2.03012 48.2642 1.74431 47.7682 1.368C46.6085 0.488092 46.3741 0.3433 46.1889 0.392332C46.1054 0.414452 45.511 0.832977 44.8682 1.32229C43.855 2.09371 43.5024 2.31473 43.5024 2.17888Z" fill="#F3B43A" stroke="#F3B43A" stroke-width="0.0921659"/>
<path d="M14.1203 26.9298C13.8721 26.7389 13.936 26.6359 14.3029 26.6359C14.4928 26.6359 14.8752 26.3992 15.6798 25.7834C16.2924 25.3145 16.978 24.8032 17.2033 24.6472C17.4287 24.4911 17.7458 24.2413 17.908 24.0919C18.2671 23.7611 18.7437 23.4498 18.6974 23.5762C18.6642 23.6668 15.2689 26.3075 14.6092 26.7557C14.3899 26.9047 14.3149 27.0017 14.3942 27.0334C14.4613 27.0603 14.4747 27.0846 14.424 27.0874C14.3733 27.0903 14.2366 27.0193 14.1203 26.9298Z" fill="#E8B137" stroke="#E8B137" stroke-width="0.0921659"/>
<path d="M43.1614 24.9082C43.6583 24.8916 44.4463 24.8917 44.9126 24.9084C45.3788 24.9251 44.9723 24.9386 44.0092 24.9385C43.046 24.9384 42.6645 24.9248 43.1614 24.9082Z" fill="#2E381E" stroke="#2E381E" stroke-width="0.0921659"/>
<path d="M78.0498 29.7105C76.6131 29.6002 74.5459 29.4637 73.456 29.4071C72.3662 29.3505 70.9146 29.2637 70.2302 29.2143C69.5459 29.1649 67.7625 29.0813 66.2671 29.0287C64.7717 28.976 62.8017 28.8919 61.8892 28.8416C60.9768 28.7912 55.9376 28.7264 50.6911 28.6974C39.436 28.6353 34.0031 28.7236 24.1934 29.1284C18.9423 29.3451 13.9914 29.5786 12.4422 29.6827C10.4989 29.8132 7.46552 29.8739 7.74175 29.7768C7.86847 29.7323 8.15668 29.6917 8.38211 29.6866C8.60755 29.6816 9.12598 29.6357 9.53419 29.5846C11.6714 29.3173 13.5436 29.1596 17.1427 28.9436C23.8621 28.5402 29.2929 28.3144 35.3454 28.1866C48.7247 27.9043 58.8104 28.0347 68.7556 28.6185C73.6244 28.9043 79.2833 29.4004 79.7652 29.5836C79.8914 29.6316 80.2664 29.6809 80.5986 29.6932C80.9308 29.7054 81.2481 29.7436 81.3036 29.7779C81.5347 29.9207 80.5117 29.8995 78.0498 29.7105Z" fill="#FEAE01" stroke="#FEAE01" stroke-width="0.0921659"/>
<path d="M70.8576 28.5539C70.69 28.519 69.9516 28.468 69.2165 28.4407C68.0288 28.3967 66.5373 28.3256 63.1797 28.1532C61.9269 28.0889 60.5481 28.0512 55.2073 27.9355C51.121 27.847 36.404 27.8763 35.3917 27.975C35.1129 28.0022 33.4746 28.0646 31.7511 28.1137C30.0276 28.1629 27.6221 28.2449 26.4055 28.2961C21.8953 28.4861 21.4746 28.495 21.4746 28.4006C21.4746 28.2861 21.9104 28.2374 24.47 28.0662C33.2469 27.4791 39.6132 27.2622 48.1106 27.2606C57.8512 27.2589 65.7401 27.6234 72.5345 28.3894C72.9654 28.438 73.3722 28.4781 73.4386 28.4785C73.5049 28.479 73.5341 28.52 73.5033 28.5698C73.4413 28.67 71.3539 28.6574 70.8576 28.5539Z" fill="#2E3B6D" stroke="#2E3B6D" stroke-width="0.0921659"/>
<path d="M75.0692 29.0719C63.1249 28.0369 46.5249 27.7442 30.9678 28.2945C25.9559 28.4717 18.5681 28.8174 18.1146 28.8959C17.8538 28.9411 15.6376 28.8479 15.6914 28.7941C15.7057 28.7798 16.9978 28.6582 18.5628 28.5239C20.6865 28.3416 21.4249 28.3066 21.4741 28.3862C21.5426 28.4971 21.6801 28.4945 26.4056 28.2959C27.6222 28.2448 30.0277 28.1629 31.7512 28.1137C33.4747 28.0646 35.113 28.0022 35.3918 27.975C36.4041 27.8763 51.1211 27.847 55.2074 27.9355C61.8888 28.0802 64.1203 28.1614 67.7737 28.3928C68.5261 28.4405 69.1714 28.4612 69.2076 28.4388C69.2438 28.4164 69.665 28.4391 70.1436 28.4891C71.4472 28.6254 73.3742 28.6778 73.492 28.58C73.6109 28.4813 77.173 28.8907 77.4655 29.0367C77.6005 29.1041 77.4997 29.1166 77.0892 29.0835C76.7808 29.0586 76.4905 29.071 76.444 29.111C76.3976 29.151 75.7789 29.1334 75.0692 29.0719Z" fill="#363C5E" stroke="#363C5E" stroke-width="0.0921659"/>
<path d="M88.2025 29.1577C86.8052 28.953 85.4374 28.7854 84.1472 28.6607C83.5643 28.6044 82.797 28.4959 82.4421 28.4196C81.6472 28.2488 77.8409 27.6498 77.5498 27.6498C77.3527 27.6498 77.1673 27.5021 77.2546 27.4148C77.389 27.2805 84.9651 28.3543 88.0643 28.947C88.8836 29.1037 88.9952 29.2738 88.2025 29.1577Z" fill="#E7B549" stroke="#E7B549" stroke-width="0.0921659"/>
<path d="M86.682 30.5307C86.5806 30.5048 85.1912 30.348 83.5944 30.1824C81.9976 30.0168 80.8546 29.8769 81.0544 29.8715C81.3962 29.8623 81.407 29.8536 81.2387 29.7231C81.077 29.5978 81.1481 29.5886 81.9815 29.6269C82.9269 29.6704 83.7183 29.7771 86.1267 30.1853C87.5246 30.4223 88.0564 30.6088 87.2764 30.5884C87.0508 30.5825 86.7834 30.5566 86.682 30.5307Z" fill="#E7B549" stroke="#E7B549" stroke-width="0.0921659"/>
<path d="M2.94922 30.2491C2.94922 30.1213 3.18268 30.0461 3.5789 30.0462C3.76489 30.0463 4.24876 30.0054 4.65429 29.9554C5.05982 29.9053 6.05521 29.7997 6.86627 29.7206C7.67733 29.6414 8.52756 29.5379 8.75567 29.4904C9.35641 29.3655 13.0059 29.0122 13.0667 29.073C13.1806 29.1869 12.9593 29.2314 11.6465 29.3588C10.893 29.4319 9.94249 29.5336 9.53429 29.5846C9.12608 29.6357 8.60765 29.6816 8.38221 29.6866C8.15678 29.6917 7.86857 29.729 7.74185 29.7696C7.59069 29.818 7.86019 29.8506 8.52526 29.8645L9.53908 29.8856L8.89392 29.9591C8.53908 29.9994 7.2741 30.0809 6.08286 30.1402C4.89161 30.1994 3.69917 30.2688 3.43309 30.2942C3.14424 30.3218 2.94922 30.3036 2.94922 30.2491Z" fill="#D4BD94" stroke="#D4BD94" stroke-width="0.0921659"/>
<path d="M13.0874 29.1255C13.0874 29.0743 13.1185 29.0313 13.1565 29.0302C13.1946 29.0291 13.7441 28.9759 14.3777 28.9122C15.0114 28.8484 15.8823 28.8182 16.3132 28.8451L17.0966 28.894L16.4975 28.96C16.168 28.9963 15.4215 29.0497 14.8386 29.0786C14.2556 29.1076 13.6231 29.1509 13.433 29.1749C13.2325 29.2004 13.0874 29.1796 13.0874 29.1255Z" fill="#414155" stroke="#414155" stroke-width="0.0921659"/>
<path d="M80.0922 28.148C79.6912 28.0513 71.6497 27.374 70.8778 27.3719C70.5979 27.3711 70.3065 27.3262 70.2305 27.2722C70.1308 27.2013 70.3361 27.1896 70.9678 27.2304C73.2608 27.3785 73.687 27.3884 73.5485 27.29C73.4404 27.2132 73.4852 27.1914 73.7533 27.1903C74.4731 27.1874 80.6053 28.0399 80.725 28.1595C80.7734 28.208 80.3058 28.1994 80.0922 28.148Z" fill="#414155" stroke="#414155" stroke-width="0.0921659"/>
<path d="M81.8892 28.4276C81.7878 28.4129 81.0827 28.3546 80.3224 28.2978C78.3985 28.1542 77.3212 28.0259 77.1501 27.9198C77.0475 27.8562 77.1271 27.8441 77.4191 27.8785C78.4453 27.9996 79.8413 28.1237 80.6449 28.1652C81.1265 28.19 81.7486 28.2673 82.0274 28.337C82.476 28.449 82.3968 28.5008 81.8892 28.4276Z" fill="#D4B163" stroke="#D4B163" stroke-width="0.0921659"/>
<path d="M18.3486 27.5678C18.8447 27.4049 25.6271 27.0744 34.0554 26.8026C41.6254 26.5584 57.2403 26.6629 64.378 27.0053C65.3918 27.054 66.7398 27.1184 67.3734 27.1485C68.007 27.1785 69.0232 27.2405 69.6315 27.2861C70.2398 27.3317 70.81 27.37 70.8988 27.3712C70.9875 27.3723 71.06 27.4358 71.06 27.5122C71.06 27.6274 70.954 27.6421 70.4379 27.5985C69.3395 27.5057 66.4698 27.3595 64.1476 27.2781C62.9057 27.2345 61.1015 27.1675 60.1384 27.129C57.1988 27.0118 33.4418 27.0515 31.7513 27.1765C28.1308 27.4441 17.8075 27.7456 18.3486 27.5678Z" fill="#E8B137" stroke="#E8B137" stroke-width="0.0921659"/>
<path d="M74.3318 27.8706C72.1875 27.7292 71.7051 27.6707 71.7051 27.552C71.7051 27.5044 71.9001 27.4654 72.1385 27.4654C72.663 27.4654 75.9989 27.7278 76.2903 27.792C76.5336 27.8455 76.5724 28.0245 76.3364 28.0053C76.2477 27.9981 75.3456 27.9374 74.3318 27.8706Z" fill="#D4B163" stroke="#D4B163" stroke-width="0.0921659"/>
<path d="M77.7679 29.3273C77.0218 29.2516 76.4282 29.1625 76.4488 29.1292C76.5576 28.9531 79.9079 29.2288 79.9079 29.414C79.9079 29.5158 79.4404 29.4969 77.7679 29.3273Z" fill="#414155" stroke="#414155" stroke-width="0.0921659"/>
<path d="M10.6497 27.9339C10.5581 27.7857 10.7131 27.7576 11.9354 27.7004C12.5437 27.6719 13.2331 27.6235 13.4673 27.5928C13.7324 27.5581 13.9167 27.5747 13.955 27.6368C14.04 27.7742 13.784 27.8154 12.4423 27.8803C11.8086 27.9109 11.1603 27.9583 11.0013 27.9855C10.8375 28.0136 10.6851 27.9912 10.6497 27.9339Z" fill="#664C23" stroke="#664C23" stroke-width="0.0921659"/>
<path d="M33.6865 26.7281C33.7217 26.671 34.4156 26.6417 35.5122 26.6512C37.1003 26.6648 37.1868 26.6731 36.3593 26.7324C34.9179 26.8358 33.6211 26.8338 33.6865 26.7281Z" fill="#414155" stroke="#414155" stroke-width="0.0921659"/>
<path d="M64.7004 27.0117C64.3709 26.9824 64.1429 26.9313 64.1936 26.8982C64.3251 26.8121 65.8986 26.9223 65.8986 27.0176C65.8986 27.1006 65.6891 27.0995 64.7004 27.0117Z" fill="#414155" stroke="#414155" stroke-width="0.0921659"/>
<path d="M36.4745 28.1341C36.9434 28.1174 37.7107 28.1174 38.1796 28.1341C38.6484 28.1508 38.2648 28.1645 37.327 28.1645C36.3893 28.1645 36.0057 28.1508 36.4745 28.1341Z" fill="#DAA347" stroke="#DAA347" stroke-width="0.0921659"/>
<path d="M28.2487 26.9124C28.2824 26.8579 28.7638 26.826 29.4292 26.8343C30.4299 26.8468 30.4873 26.8558 29.9538 26.9158C29.0268 27.0199 28.1833 27.0183 28.2487 26.9124Z" fill="#414155" stroke="#414155" stroke-width="0.0921659"/>
<path d="M13.9629 27.6498C13.9316 27.5991 13.9602 27.5544 14.0266 27.5505C14.0929 27.5466 15.1219 27.452 16.3131 27.3403C18.2425 27.1594 18.4853 27.1525 18.5365 27.2782C18.5682 27.3559 18.5859 27.4294 18.5758 27.4417C18.5598 27.4611 14.4167 27.7406 14.1296 27.7416C14.0693 27.7418 13.9942 27.7005 13.9629 27.6498Z" fill="#414155" stroke="#414155" stroke-width="0.0921659"/>
<path d="M24.009 27.0968C24.0413 27.0446 24.4337 27.01 24.9131 27.017C25.6743 27.028 25.7134 27.0365 25.2993 27.101C24.616 27.2075 23.942 27.2053 24.009 27.0968Z" fill="#414155" stroke="#414155" stroke-width="0.0921659"/>
<path d="M20.0462 27.2811C20.079 27.228 20.5017 27.1942 21.0424 27.2013C21.8506 27.2119 21.9174 27.2236 21.5209 27.2853C20.8332 27.3924 19.9789 27.39 20.0462 27.2811Z" fill="#414155" stroke="#414155" stroke-width="0.0921659"/>
<path d="M71.0596 27.5115C71.0596 27.4061 71.1635 27.3766 71.4974 27.3871C71.7678 27.3957 71.8383 27.4156 71.6817 27.4393C71.5422 27.4604 71.4282 27.5164 71.4282 27.5637C71.4282 27.611 71.3453 27.6498 71.2439 27.6498C71.1415 27.6498 71.0596 27.5883 71.0596 27.5115Z" fill="#E1B34A" stroke="#E1B34A" stroke-width="0.0921659"/>
<path d="M5.46826 28.4445C5.46826 28.347 5.62402 28.2935 6.029 28.2522C6.33739 28.2206 6.96292 28.1559 7.41914 28.1084C9.73923 27.8668 10.5144 27.8179 10.6236 27.906C10.6991 27.967 11.3225 27.9559 12.4883 27.8727C14.0262 27.763 15.2844 27.68 17.88 27.517C18.3282 27.4889 18.4902 27.5014 18.3408 27.5525C18.1759 27.6089 18.3595 27.6378 18.986 27.6538L19.8615 27.6763L18.7095 27.7507C18.0758 27.7916 16.3754 27.8907 14.9307 27.971C11.2248 28.177 7.31333 28.423 6.07508 28.5281C5.58015 28.5701 5.46826 28.5547 5.46826 28.4445Z" fill="#E7B549" stroke="#E7B549" stroke-width="0.0921659"/>
<path d="M10.3302 29.8265C10.3514 29.8072 10.8664 29.7694 11.4747 29.7427C12.232 29.7093 12.4064 29.7173 12.0277 29.7679C11.4449 29.8457 10.2648 29.8865 10.3302 29.8265Z" fill="#D4BD94" stroke="#D4BD94" stroke-width="0.0921659"/>
<path d="M76.4976 27.9263C76.4976 27.8087 76.9608 27.8087 77.1427 27.9263C77.244 27.9917 77.1761 28.016 76.8893 28.0171C76.6738 28.0178 76.4976 27.977 76.4976 27.9263Z" fill="#E7B549" stroke="#E7B549" stroke-width="0.0921659"/>
<path d="M74.9309 27.316C72.5922 27.0202 72.3788 26.9867 72.5161 26.9372C72.582 26.9135 73.0382 26.9378 73.5299 26.9912C74.0216 27.0447 74.9632 27.1349 75.6221 27.192C77.0422 27.3148 77.235 27.3477 77.235 27.4672C77.235 27.5888 76.9285 27.5687 74.9309 27.316Z" fill="#D4B163" stroke="#D4B163" stroke-width="0.0921659"/>
<path d="M13.5713 29.6103C13.7614 29.5904 14.0725 29.5904 14.2626 29.6103C14.4526 29.6302 14.2972 29.6465 13.917 29.6465C13.5368 29.6465 13.3813 29.6302 13.5713 29.6103Z" fill="#D4BD94" stroke="#D4BD94" stroke-width="0.0921659"/>
<path d="M51.3361 26.6359C50.1651 26.6074 49.5093 26.5593 49.6115 26.5095C49.7022 26.4653 49.9307 26.4538 50.1196 26.4841C50.3084 26.5143 51.4059 26.5428 52.5585 26.5473C53.8656 26.5524 54.654 26.5897 54.654 26.6463C54.654 26.7003 54.3653 26.7258 53.9398 26.7095C53.5469 26.6944 52.3752 26.6613 51.3361 26.6359Z" fill="#414155" stroke="#414155" stroke-width="0.0921659"/>
<path d="M72.394 27.0935C72.3541 27.0288 72.5389 27.0181 72.9646 27.06C73.7848 27.1408 73.8213 27.1889 73.062 27.1889C72.7271 27.1889 72.4264 27.146 72.394 27.0935Z" fill="#363C5E" stroke="#363C5E" stroke-width="0.0921659"/>
<path d="M18.5943 27.4142C18.3913 27.2039 18.5655 27.1215 19.3316 27.0655C19.7751 27.0332 21.2579 26.9244 22.6266 26.824C37.7362 25.7151 52.0225 25.542 64.2855 26.3192C68.8997 26.6116 72.0712 26.9047 72.3238 27.0619C72.4361 27.1318 72.7264 27.1896 72.969 27.1903C73.2115 27.1911 73.4722 27.2358 73.5482 27.2895C73.6466 27.359 73.3536 27.3666 72.5344 27.3163C71.9007 27.2773 70.7395 27.2405 69.9537 27.2344C68.1948 27.2207 65.9606 27.095 65.8984 27.0062C65.8279 26.9053 64.2516 26.8183 64.1937 26.912C64.135 27.0068 61.5446 26.919 61.4745 26.8197C61.406 26.7229 59.4536 26.6428 59.3969 26.7345C59.3365 26.8321 54.7112 26.7279 54.6715 26.628C54.6558 26.5882 53.7226 26.5525 52.5978 26.5486C51.4731 26.5447 50.3561 26.5159 50.1157 26.4847C49.846 26.4497 49.6309 26.4676 49.5542 26.5312C49.465 26.6052 47.22 26.6387 41.6042 26.65C36.1408 26.6609 33.7397 26.6958 33.6497 26.7656C33.563 26.8329 32.6737 26.8608 30.9308 26.8511C29.0799 26.8407 28.3039 26.8671 28.2113 26.9436C28.1206 27.0187 27.4876 27.0462 26.0915 27.0358C24.696 27.0254 24.0625 27.0529 23.9717 27.1279C23.881 27.2029 23.289 27.229 21.9959 27.2151C20.8495 27.2028 20.1066 27.2308 20.0365 27.2889C19.895 27.4064 18.6879 27.5112 18.5943 27.4142Z" fill="#2E3B6D" stroke="#2E3B6D" stroke-width="0.0921659"/>
<path d="M22.937 39.6807C22.9134 39.6571 19.3007 39.6331 14.9085 39.6273C8.18296 39.6184 6.90582 39.5964 6.81559 39.4877C6.70241 39.3513 6.65384 36.6332 6.76269 36.5243C6.79421 36.4928 6.82011 36.3759 6.82011 36.2644C6.82011 36.0934 6.88656 36.0528 7.24776 36.0033C7.79826 35.9278 84.5415 35.9281 85.3334 36.3449C85.3862 36.4085 85.4315 36.6037 85.4342 36.7786C85.4611 38.528 85.4346 39.2607 85.3362 39.4764L85.2237 39.7235H54.1018C36.9847 39.7235 22.9606 39.7042 22.937 39.6807Z" fill="#003246" stroke="#003246" stroke-width="0.0921659"/>
<path d="M0.755777 39.4286C0.600939 39.2737 0.600939 36.4866 0.755777 36.3318C0.836976 36.2506 1.62011 36.2212 3.70509 36.2212H6.5438V37.8802V39.5392H3.70509C1.62011 39.5392 0.836976 39.5098 0.755777 39.4286Z" fill="#FEAE01" stroke="#FEAE01" stroke-width="0.0921659"/>
<path d="M85.6635 39.4219C85.6381 39.3558 85.6287 38.619 85.6427 37.7845L85.6682 36.2673L88.1357 36.2428L90.6033 36.2182L90.5781 37.8557L90.553 39.4931L88.1313 39.5177C86.2069 39.5372 85.7002 39.5175 85.6635 39.4219Z" fill="#FEAE01" stroke="#FEAE01" stroke-width="0.0921659"/>
<path d="M6.5847 39.6054C6.55972 39.5404 6.55078 38.7246 6.5646 37.7926C6.58331 36.5373 6.61963 36.0882 6.70497 36.0598C6.8235 36.0204 6.87253 36.4146 6.76276 36.5243C6.65391 36.6332 6.70248 39.3513 6.81566 39.4877C6.90589 39.5964 8.18304 39.6184 14.9086 39.6273C19.3007 39.6331 22.9135 39.6571 22.937 39.6807C22.9606 39.7042 19.3012 39.7235 14.805 39.7235C8.24064 39.7235 6.6211 39.7003 6.5847 39.6054Z" fill="#12323C" stroke="#12323C" stroke-width="0.0921659"/>
<path d="M85.3094 39.5715C85.3548 39.4777 85.404 38.8825 85.4187 38.2489C85.4551 36.6787 85.4456 36.4796 85.3272 36.337C85.2517 36.246 85.2528 36.1853 85.3313 36.1067C85.5759 35.8621 85.6264 36.2024 85.6015 37.9318C85.578 39.5592 85.5647 39.6773 85.4016 39.7087C85.2596 39.7359 85.2423 39.7101 85.3094 39.5715Z" fill="#12323C" stroke="#12323C" stroke-width="0.0921659"/>
<path d="M16.3135 34.3344C16.3135 34.2629 16.3495 34.1821 16.3937 34.1548C16.4378 34.1275 16.5697 33.8451 16.6868 33.5273C17.0281 32.6012 17.182 32.4535 17.8112 32.4475L18.3411 32.4424V31.524C18.3411 30.4324 18.3573 30.4147 19.3546 30.4147C20.217 30.4147 20.9111 30.7241 21.2719 31.2694C21.4873 31.5949 21.5208 31.7394 21.5208 32.3435C21.5208 33.2993 21.2407 33.7925 20.4887 34.1604C19.9498 34.4241 19.0496 34.5522 18.5739 34.4328C18.3493 34.3764 18.3411 34.3486 18.3411 33.6388V32.9032H17.7057H17.0704L16.8302 33.5033C16.6981 33.8333 16.59 34.1607 16.59 34.2308C16.59 34.3008 16.5278 34.382 16.4517 34.4112C16.3691 34.4429 16.3135 34.412 16.3135 34.3344ZM20.3227 33.7479C20.9208 33.4068 21.1955 32.2995 20.8525 31.6129C20.6287 31.165 20.0136 30.8609 19.401 30.8956L18.9402 30.9216L18.9135 31.682C18.8867 32.4419 18.8868 32.4424 19.1209 32.4424C19.2496 32.4424 19.355 32.4809 19.355 32.528C19.355 32.6389 19.0906 32.9032 18.9797 32.9032C18.8467 32.9032 18.8746 33.893 19.0093 33.9527C19.2089 34.0411 20.0345 33.9123 20.3227 33.7479Z" fill="#E8B137" stroke="#E8B137" stroke-width="0.0921659"/>
<path d="M73.8462 34.3928C73.7562 34.3357 73.7349 33.8712 73.754 32.3897L73.779 30.4608L74.4702 30.4361C75.0265 30.4162 75.2191 30.4469 75.4561 30.593C75.8654 30.8453 76.0596 31.1797 76.0536 31.6208C76.044 32.3145 75.5826 32.736 74.7509 32.811L74.2398 32.8571L74.1937 33.6333C74.1486 34.3942 74.081 34.5416 73.8462 34.3928ZM75.3658 32.1238C75.8875 31.5173 75.3801 30.7913 74.5044 30.8914C74.2447 30.9211 74.2394 30.9333 74.2123 31.5577C74.1742 32.4354 74.1984 32.4762 74.7223 32.4171C75.0392 32.3814 75.2119 32.3027 75.3658 32.1238Z" fill="#FEAE01" stroke="#FEAE01" stroke-width="0.0921659"/>
<path d="M51.3057 34.3164C51.2719 34.2826 51.2442 34.1606 51.2442 34.0453C51.2442 33.93 51.2055 33.8119 51.1582 33.7827C51.1109 33.7534 51.0252 33.5028 50.9677 33.2258C50.9102 32.9487 50.8245 32.6981 50.6319 32.0451C50.5135 31.9268 50.1391 30.9164 50.1387 30.7143C50.1383 30.5165 50.1721 30.5069 50.8765 30.5069H51.6147L51.5973 32.4424C51.5804 34.31 51.5425 34.5533 51.3057 34.3164Z" fill="#003246" stroke="#003246" stroke-width="0.0921659"/>
<path d="M68.2835 34.2857C68.191 33.5451 68.3397 31.2384 68.4858 31.1481C68.6462 31.049 69.2418 31.1486 69.3598 31.2942C69.4383 31.3911 69.4721 33.2937 69.4117 34.2166C69.4028 34.3511 69.3093 34.3779 68.8481 34.3779C68.5439 34.3779 68.2899 34.3364 68.2835 34.2857Z" fill="#003246" stroke="#003246" stroke-width="0.0921659"/>
<path d="M26.7454 32.5309C26.7577 31.515 26.7942 30.641 27.4748 30.553L27.2467 30.8607C27.0672 31.1031 27.0296 31.2402 27.0697 31.5059C27.1591 32.0986 27.4356 32.4325 28.1001 32.7501C28.4747 32.9292 28.7218 33.1068 28.741 33.2109C28.8083 33.5745 28.0619 34.0268 27.8801 33.7327C27.793 33.5918 27.3181 33.623 27.1893 33.7782C27.1265 33.854 27.0949 34.0199 26.7231 34.3779L26.7454 32.5309Z" fill="#003246" stroke="#003246" stroke-width="0.0921659"/>
<path d="M36.2003 33.6636C36.156 32.8964 36.218 32.7091 36.4518 32.9032C36.5624 32.995 36.6237 32.9986 36.7046 32.9178C36.7633 32.8591 36.9606 32.811 37.1431 32.811C37.7624 32.811 37.8804 32.4205 37.3774 32.0369C37.1093 31.8323 36.9999 31.8032 36.6877 31.8532C36.292 31.9164 36.2464 31.8768 36.1995 31.4286C36.1774 31.2179 36.2069 31.1978 36.544 31.1934C36.7468 31.1907 37.008 31.1561 37.1245 31.1166C37.2574 31.0714 37.3875 31.0873 37.474 31.159C37.6391 31.296 37.7577 31.1963 37.8107 30.8756C37.8462 30.6602 37.8593 30.6687 38.0108 31.007C38.1354 31.2851 38.156 31.4664 38.0996 31.7904C38.0592 32.0223 38.0335 32.2742 38.0424 32.3502C38.0514 32.4263 38.0767 32.9135 38.0988 33.4332L38.1389 34.3779H37.1902H36.2416L36.2003 33.6636Z" fill="#003246" stroke="#003246" stroke-width="0.0921659"/>
<path d="M11.8435 34.543C11.1413 34.1404 11.4074 33.2831 12.3745 32.8327C12.8254 32.6227 13.7756 32.4424 14.4317 32.4423L14.8849 32.4422L15.7144 31.43L16.5439 30.4178L17.2121 30.4163C17.622 30.4154 17.8803 30.4524 17.6955 30.6167C17.6953 30.683 17.5691 31.0616 17.4149 31.4579C17.2464 31.8909 17.1581 32.2526 17.1936 32.3643C17.2317 32.4843 17.1887 32.6209 17.0723 32.7498C16.9731 32.8595 16.8472 33.0831 16.7926 33.2468C16.7379 33.4105 16.5974 33.7559 16.4803 34.0145C16.2754 34.4671 16.2559 34.4827 15.9565 34.4351C15.7854 34.4079 15.6254 34.3656 15.6008 34.341C15.5762 34.3164 15.6614 33.9828 15.7902 33.5997L16.0244 32.9032H15.6351C15.2936 32.9032 15.1954 32.9552 14.835 33.3267C14.3507 33.8258 13.5383 34.3964 13.097 34.5473C12.7008 34.6828 12.0834 34.6806 11.8435 34.543ZM13.3656 33.982C13.7837 33.7816 14.3709 33.3214 14.4303 33.1474C14.5326 32.8475 14.3441 32.7739 13.7696 32.8893C13.0522 33.0334 12.6804 33.2625 12.643 33.5837C12.6265 33.7249 12.6356 33.8991 12.6632 33.9709C12.7237 34.1285 13.0491 34.1336 13.3656 33.982ZM16.4011 31.8817C16.5135 31.5733 16.5877 31.3033 16.566 31.2816C16.5245 31.2401 15.6684 32.2958 15.6684 32.3886C15.6684 32.4181 15.7872 32.4424 15.9325 32.4424C16.1719 32.4424 16.2158 32.3898 16.4011 31.8817Z" fill="#FEAE01" stroke="#FEAE01" stroke-width="0.0921659"/>
<path d="M22.2334 32.4193L22.2583 30.4608L22.9887 30.4336C24.4879 30.3778 25.3458 31.0694 25.3458 32.3335C25.3458 33.2264 24.9981 33.8298 24.295 34.1572C23.9136 34.3348 23.6729 34.3762 23.0168 34.3769L22.2085 34.3779L22.2334 32.4193ZM24.0919 33.75C24.5481 33.484 24.7344 33.1439 24.7753 32.5019C24.8312 31.6254 24.563 31.2024 23.779 30.9301C23.2515 30.7469 22.8202 30.7444 22.6715 30.9235C22.5197 31.1064 22.6322 33.8311 22.7961 33.9432C22.9557 34.0522 23.786 33.9284 24.0919 33.75Z" fill="#FEAE01" stroke="#FEAE01" stroke-width="0.0921659"/>
<path d="M19.0094 33.9527C18.8747 33.893 18.8468 32.9032 18.9799 32.9032C19.0907 32.9032 19.3551 32.6389 19.3551 32.528C19.3551 32.4809 19.2497 32.4424 19.121 32.4424C18.887 32.4424 18.8869 32.4419 18.9136 31.682L18.9403 30.9216L19.4012 30.8956C20.0137 30.8609 20.6288 31.165 20.8526 31.6129C21.1956 32.2995 20.9209 33.4068 20.3228 33.7479C20.0346 33.9123 19.209 34.0411 19.0094 33.9527ZM20.4075 33.3263C20.6187 33.1502 20.6906 32.996 20.7416 32.6108C20.8144 32.0607 20.7554 31.8908 20.3398 31.4516C20.096 31.1941 19.9937 31.1521 19.6106 31.1521C19.2901 31.1521 19.1493 31.1928 19.1093 31.2971C19.0458 31.4626 19.2541 32.1659 19.3666 32.1659C19.4074 32.1659 19.4878 32.2538 19.5453 32.3613C19.6309 32.5212 19.6147 32.6041 19.4564 32.8183C19.1817 33.1898 19.2112 33.398 19.5624 33.5666C19.8839 33.721 19.9608 33.6992 20.4075 33.3263Z" fill="#12323C" stroke="#12323C" stroke-width="0.0921659"/>
<path d="M67.6191 34.4086C67.5852 34.3747 67.5576 33.5887 67.5576 32.6618V30.9765L66.9815 30.9491C66.4295 30.9228 66.4043 30.911 66.3764 30.6682L66.3472 30.4147H67.788H69.2288L69.1996 30.6682C69.1717 30.911 69.1465 30.9228 68.5944 30.9491L68.0184 30.9765V32.6674C68.0184 34.1241 67.9982 34.3659 67.8726 34.4141C67.6921 34.4834 67.6939 34.4834 67.6191 34.4086Z" fill="#FEAE01" stroke="#FEAE01" stroke-width="0.0921659"/>
<path d="M72.074 34.2078C72.074 33.8834 71.7853 33.7431 71.0579 33.7141L70.3689 33.6866V33.2719V32.8571L71.0581 32.765C71.6916 32.6803 71.7545 32.6522 71.8365 32.4189C71.9839 31.9986 71.8565 31.9337 70.8182 31.9013C70.4677 31.8903 70.4334 31.8664 70.3791 31.5945C70.2925 31.162 70.4954 30.9853 70.9074 31.1343C71.319 31.2831 71.859 31.0761 71.9441 30.7368C71.9985 30.5202 72.0377 30.5069 72.6227 30.5069C73.4328 30.5069 73.5498 30.6246 73.5456 31.4358C73.5439 31.7614 73.5059 32.313 73.4609 32.6618C73.4159 33.0107 73.408 33.3739 73.4432 33.4691C73.4784 33.5643 73.4914 33.8077 73.4721 34.01L73.4371 34.3779H72.7556C72.1545 34.3779 72.074 34.3578 72.074 34.2078Z" fill="#003246" stroke="#003246" stroke-width="0.0921659"/>
<path d="M44.8053 33.7624C44.7518 33.4963 44.6226 33.1016 44.5181 32.8853L44.3281 32.4922L44.5373 32.3344C44.719 32.1974 44.7467 32.0937 44.7467 31.5491C44.7467 31.204 44.7128 30.8283 44.6714 30.7143C44.5227 30.0576 45.0003 31.0895 45.1727 30.6844C45.2071 30.5615 45.2393 31.3125 45.2443 32.3535C45.2531 34.1565 45.2453 34.2462 45.078 34.2462C44.94 34.2462 44.8817 34.1428 44.8053 33.7624ZM45.1285 33.2246C45.1579 33.1479 45.1308 33.0235 45.0682 32.9481C44.9875 32.8509 44.9827 32.7769 45.0517 32.6938C45.1731 32.5475 45.1486 31.659 45.0231 31.659C44.9725 31.659 44.9175 31.8249 44.9011 32.0276C44.8847 32.2304 44.8121 32.4295 44.7398 32.47C44.5707 32.565 44.5735 32.7526 44.749 33.0922C44.9034 33.3906 45.0457 33.4403 45.1285 33.2246Z" fill="#12323C" stroke="#12323C" stroke-width="0.0921659"/>
<path d="M54.0095 34.1627C54.0095 33.8315 53.8397 33.7449 53.1301 33.7143L52.4888 33.6866L52.5046 33.318C52.5134 33.1152 52.5237 32.3998 52.5277 31.7281L52.5349 30.5069H54.0089H55.4829L55.4605 32.4193L55.4381 34.3318L54.7238 34.3587C54.0222 34.3851 54.0095 34.3816 54.0095 34.1627Z" fill="#003246" stroke="#003246" stroke-width="0.0921659"/>
<path d="M62.143 34.409C62.0567 34.3742 62.0278 33.9376 62.0278 32.6695V30.9765L61.4518 30.9491C60.8997 30.9228 60.8745 30.911 60.8466 30.6682L60.8174 30.4147H62.2822H63.7471L63.7064 30.6912C63.6666 30.9626 63.6556 30.9677 63.1233 30.9677H62.5808V32.6629C62.5808 34.1238 62.5606 34.3659 62.435 34.4141C62.3548 34.4449 62.2823 34.4667 62.2737 34.4628C62.2651 34.4588 62.2064 34.4346 62.143 34.409Z" fill="#FEAE01" stroke="#FEAE01" stroke-width="0.0921659"/>
<path d="M31.4287 32.3963C31.4287 32.3963 31.4287 30.4147 31.9817 30.4147V32.1659V33.917H32.7543C33.5053 33.917 33.5282 33.9235 33.5711 34.1475L33.6152 34.3779H32.5219H31.4287V32.3963Z" fill="#FEAE01" stroke="#FEAE01" stroke-width="0.0921659"/>
<path d="M75.2305 34.2187C74.4492 34.1852 74.3312 34.117 74.651 33.7051C74.3829 33.6349 74.4321 33.2258 74.7087 33.2258C75.0885 33.0332 75.3772 33.096 75.5105 32.9958C75.5771 32.7414 75.8179 32.671 75.9998 32.8528C76.0333 33.0844 75.8534 33.5595 76.1632 33.3741C76.3437 33.2242 76.3943 33.3353 76.3695 33.8267C76.3458 34.2958 76.4219 34.2698 75.2305 34.2187Z" fill="#003246" stroke="#003246" stroke-width="0.0921659"/>
<path d="M73.4501 33.9401C73.4484 33.6993 73.4436 33.3986 73.4394 33.2719C73.4351 33.1451 73.4643 32.554 73.5042 31.9582C73.5696 30.9815 73.5604 30.8569 73.7329 30.5069V32.4424C73.7329 34.1118 73.7138 34.3779 73.593 34.3779C73.4879 34.3779 73.4523 34.2688 73.4501 33.9401Z" fill="#12323C" stroke="#12323C" stroke-width="0.0921659"/>
<path d="M19.5621 33.5666C19.2109 33.398 19.1814 33.1898 19.4561 32.8183C19.6144 32.6041 19.6306 32.5212 19.545 32.3613C19.4875 32.2538 19.4071 32.1659 19.3663 32.1659C19.2538 32.1659 19.0455 31.4626 19.109 31.2971C19.149 31.1928 19.2898 31.1521 19.6103 31.1521C19.9934 31.1521 20.0957 31.1941 20.3395 31.4516C20.7551 31.8908 20.8141 32.0607 20.7413 32.6108C20.6903 32.996 20.6184 33.1502 20.4072 33.3263C19.9605 33.6992 19.8836 33.721 19.5621 33.5666Z" fill="#003246" stroke="#003246" stroke-width="0.0921659"/>
<path d="M29.3229 34.2166C29.8584 33.5755 29.773 32.6614 29.1365 32.2203C28.9471 32.089 28.7386 31.9816 28.673 31.9816C28.4625 31.9816 28.0186 31.6059 28.0186 31.4277C28.0186 31.1883 28.1319 31.1392 28.7438 31.1134C29.379 31.0868 29.4932 31.0286 29.4932 30.7319C29.4932 30.5091 29.502 30.5069 30.3688 30.5069C30.8504 30.5069 31.248 30.538 31.2526 30.576C31.293 30.9181 31.3171 34.0928 31.2801 34.2166C31.238 34.3576 31.1035 34.3779 30.2101 34.3779C29.2469 34.3779 29.1959 34.3686 29.3229 34.2166Z" fill="#003246" stroke="#003246" stroke-width="0.0921659"/>
<path d="M22.9759 33.6754C22.9381 33.5802 22.9062 32.9631 22.9052 32.3041L22.9033 31.106L23.3502 31.1375C24.1726 31.1956 24.6084 31.6554 24.6084 32.4649C24.6084 33.0924 24.0612 33.6835 23.3774 33.7945C23.1076 33.8382 23.0318 33.8158 22.9759 33.6754Z" fill="#003246" stroke="#003246" stroke-width="0.0921659"/>
<path d="M55.4565 33.1106C55.4667 32.4135 55.477 31.5426 55.4795 31.1751C55.4821 30.7941 55.5236 30.5069 55.5762 30.5069C55.6347 30.5069 55.6683 31.2135 55.6683 32.4424C55.6683 33.9293 55.6416 34.3779 55.5531 34.3779C55.4657 34.3779 55.4424 34.0729 55.4565 33.1106Z" fill="#12323C" stroke="#12323C" stroke-width="0.0921659"/>
<path d="M38.3396 34.1244C38.3389 33.985 38.3286 33.0921 38.3166 32.14L38.2949 30.409L39.3087 30.4349C40.2751 30.4596 40.324 30.4704 40.3515 30.6644C40.3792 30.8586 40.3452 30.8692 39.6142 30.8948L38.8479 30.9216V31.5207V32.1198L39.5622 32.1467C40.1952 32.1706 40.2765 32.1937 40.2765 32.3502C40.2765 32.5067 40.1952 32.5298 39.5622 32.5537L38.8479 32.5806V33.2258V33.8709L39.6544 33.8976C40.4425 33.9236 40.4608 33.9294 40.4608 34.151V34.3779H39.4009H38.341L38.3396 34.1244Z" fill="#E8B137" stroke="#E8B137" stroke-width="0.0921659"/>
<path d="M51.7666 34.3164C51.7327 34.2826 51.7051 33.3909 51.7051 32.3348C51.7051 32.3348 51.7051 30.4147 52.254 30.4147L52.2791 32.1428L52.3042 33.871L53.1106 33.8976C53.8988 33.9236 53.9171 33.9294 53.9171 34.151V34.3779H52.8725C52.2981 34.3779 51.8004 34.3502 51.7666 34.3164Z" fill="#FEAE01" stroke="#FEAE01" stroke-width="0.0921659"/>
<path d="M22.7856 33.9368C22.6965 33.8765 22.6741 33.4999 22.6934 32.3894L22.7188 30.9216L23.3325 30.9286C24.3822 30.9404 24.8238 31.4111 24.7716 32.4625C24.7377 33.1438 24.5625 33.4755 24.0917 33.75C23.7774 33.9333 22.9541 34.051 22.7856 33.9368ZM24.0262 33.5292C24.5484 33.1804 24.7168 32.5957 24.5017 31.8777C24.3697 31.4371 23.9718 31.1814 23.3501 31.1375L22.9032 31.106L22.905 32.3041C22.9073 33.7808 22.9345 33.8663 23.3773 33.7945C23.5602 33.7648 23.8522 33.6454 24.0262 33.5292Z" fill="#12323C" stroke="#12323C" stroke-width="0.0921659"/>
<path d="M47.558 33.7651C47.3998 33.6813 47.1515 33.6606 46.7652 33.6992L46.2028 33.7554L46.1493 33.3565C46.1199 33.1371 46.1163 32.9246 46.1411 32.8843C46.166 32.844 46.4488 32.811 46.7694 32.811C47.2734 32.811 47.3704 32.7829 47.4849 32.6037C47.5633 32.481 47.5939 32.3022 47.5598 32.1659C47.5127 31.9775 47.4444 31.9345 47.1845 31.9297C46.1916 31.9114 46.2008 31.9146 46.1338 31.5574C46.0995 31.3748 46.0986 31.1985 46.1316 31.1657C46.1647 31.1329 46.5067 31.106 46.8914 31.106H47.5908L47.6692 30.8064C47.7475 30.5074 47.7487 30.5069 48.3441 30.5069C48.6721 30.5069 48.9405 30.5268 48.9405 30.5511C48.9405 30.5755 48.8816 30.7517 48.8096 30.9428C48.7376 31.134 48.6542 31.4355 48.6244 31.6129C48.5945 31.7903 48.4669 32.1573 48.3406 32.4285C48.2143 32.6996 48.111 33.016 48.111 33.1315C48.111 33.247 48.0468 33.3947 47.9685 33.4597C47.8902 33.5247 47.8469 33.6321 47.8724 33.6984C47.941 33.877 47.8181 33.903 47.558 33.7651Z" fill="#003246" stroke="#003246" stroke-width="0.0921659"/>
<path d="M55.6685 32.3963V30.4147H56.7284H57.7883V30.6416C57.7883 30.8632 57.77 30.869 56.9818 30.895L56.1754 30.9216L56.1473 31.4661C56.128 31.8393 56.157 32.0345 56.2394 32.0868C56.3055 32.1287 56.6396 32.1638 56.9818 32.1645C57.5376 32.1658 57.6039 32.1851 57.6039 32.3463C57.6039 32.5076 57.5282 32.5297 56.8897 32.5537L56.1754 32.5806L56.1483 33.2488L56.1212 33.917H56.9449C57.6128 33.917 57.7791 33.9448 57.8248 34.0636C57.8557 34.1442 57.8577 34.2479 57.8292 34.294C57.8007 34.3401 57.3029 34.3779 56.7229 34.3779H55.6685V32.3963Z" fill="#FEAE01" stroke="#FEAE01" stroke-width="0.0921659"/>
<path d="M34.1226 32.4654C34.1226 32.4654 34.1475 30.553 34.6544 30.4946V32.4363C34.6544 32.4363 34.6544 34.3779 34.0977 34.3779L34.1226 32.4654Z" fill="#E8B137" stroke="#E8B137" stroke-width="0.0921659"/>
<path d="M33.8248 34.0607C33.8248 33.9369 33.7909 33.8148 33.7495 33.7892C33.7082 33.7636 33.3349 33.7304 32.92 33.7155C32.0412 33.6838 32.1246 33.859 32.1611 32.1198C32.1738 31.5115 32.2216 30.9745 32.2672 30.9263C32.3129 30.8781 32.3502 30.764 32.3502 30.6728C32.3502 30.526 32.4407 30.5069 33.1357 30.5069H33.9213L33.9089 32.3963C33.9021 33.4355 33.8804 34.2857 33.8607 34.2857C33.841 34.2857 33.8248 34.1845 33.8248 34.0607Z" fill="#003246" stroke="#003246" stroke-width="0.0921659"/>
<path d="M66.9622 34.2799C66.9954 34.226 66.9563 34.1086 66.8751 34.0188C66.7939 33.929 66.6482 33.5536 66.5512 33.1844C66.4542 32.8152 66.33 32.4682 66.2751 32.4133C66.2201 32.3583 66.1752 32.2267 66.1752 32.1208C66.1752 32.0149 66.0931 31.7674 65.9928 31.5708L65.8105 31.2132L66.0159 31.1069C66.157 31.0339 66.3078 31.0282 66.4977 31.0888C66.6498 31.1374 66.8944 31.1857 67.0413 31.1962L67.3084 31.2153L67.3178 32.7966L67.3272 34.3779H67.1144C66.9876 34.3779 66.9261 34.3382 66.9622 34.2799Z" fill="#003246" stroke="#003246" stroke-width="0.0921659"/>
<path d="M42.4048 34.383C42.3312 34.3376 42.3078 33.75 42.3254 32.3897L42.3504 30.4608L43.1493 30.4343L43.9482 30.4078L44.3244 30.7656C44.6496 31.0749 44.7006 31.1768 44.7006 31.5157C44.7006 31.8373 44.6453 31.9631 44.3929 32.2156C44.0908 32.5177 44.0883 32.5264 44.2599 32.6981C44.4008 32.839 44.7848 34.0072 44.7912 34.3148C44.792 34.3562 44.6789 34.3769 44.5397 34.3609C44.3101 34.3345 44.2708 34.2719 44.1161 33.6866C43.8988 32.8647 43.7695 32.7189 43.2578 32.7189H42.8573V33.5376C42.8573 34.2628 42.8375 34.3616 42.6832 34.4019C42.5874 34.427 42.4621 34.4185 42.4048 34.383ZM43.9633 32.0737C44.0759 31.9611 44.1476 31.7665 44.1476 31.5735C44.1476 31.1446 43.8054 30.8756 43.2596 30.8756H42.8573V31.5668V32.2581H43.3181C43.6561 32.2581 43.8281 32.2089 43.9633 32.0737Z" fill="#FEAE01" stroke="#FEAE01" stroke-width="0.0921659"/>
<path d="M36.0372 33.5023V32.6267H36.723C37.4239 32.6267 37.5552 32.5704 37.4562 32.3124C37.4118 32.1967 37.256 32.1659 36.7143 32.1659H36.0288L36.056 31.5438L36.0833 30.9216L36.8072 30.8945C37.4425 30.8708 37.5372 30.8448 37.5797 30.6823C37.6189 30.5326 37.6919 30.5025 37.9616 30.5251L38.2953 30.553L38.3142 32.4654C38.3259 33.6342 38.299 34.3779 38.2451 34.3779C38.1474 34.3779 38.1474 34.3776 38.0985 33.2719C38.0794 32.841 38.0554 32.4263 38.0451 32.3502C38.0348 32.2742 38.0593 32.0223 38.0997 31.7904C38.1561 31.4664 38.1355 31.2851 38.0109 31.007C37.8594 30.6687 37.8463 30.6602 37.8107 30.8756C37.7578 31.1963 37.6392 31.296 37.4741 31.159C37.3876 31.0873 37.2575 31.0714 37.1246 31.1166C37.0081 31.1561 36.7469 31.1907 36.5441 31.1933C36.207 31.1978 36.1775 31.2179 36.1996 31.4286C36.2465 31.8768 36.2921 31.9164 36.6878 31.8532C37 31.8032 37.1094 31.8323 37.3775 32.0369C37.8805 32.4205 37.7624 32.811 37.1432 32.811C36.9607 32.811 36.7634 32.8591 36.7047 32.9178C36.6238 32.9986 36.5645 32.9967 36.4599 32.9098C36.2177 32.7089 36.1583 32.8767 36.2023 33.6367C36.232 34.151 36.2133 34.3779 36.1412 34.3779C36.0712 34.3779 36.0372 34.091 36.0372 33.5023Z" fill="#12323C" stroke="#12323C" stroke-width="0.0921659"/>
<path d="M27.4884 34.3326C27.1778 34.1976 27.1415 34.1342 27.2642 33.9411C27.321 33.8518 27.4466 33.8499 27.8416 33.9328C28.448 34.06 28.8392 33.9218 28.9763 33.5322C29.1054 33.1651 28.853 32.8568 28.152 32.5256C27.2039 32.0777 27.0107 31.4518 27.6143 30.7837C27.9348 30.4289 27.9695 30.4147 28.5176 30.4147C29.1023 30.4147 29.3087 30.5134 29.3087 30.793C29.3087 30.9266 29.2176 30.9479 28.699 30.9358C28.1449 30.9229 28.073 30.9431 27.911 31.1571C27.6265 31.533 27.7956 31.8144 28.5086 32.1512C28.8354 32.3056 29.1906 32.5436 29.2979 32.68C29.5307 32.976 29.56 33.5961 29.3549 33.8889C28.983 34.4198 28.1466 34.6187 27.4884 34.3326Z" fill="#E8B137" stroke="#E8B137" stroke-width="0.0921659"/>
<path d="M58.5553 34.3355C58.3221 34.234 58.2731 34.1675 58.3146 34.009C58.3537 33.8591 58.4147 33.8232 58.5613 33.8636C59.3436 34.0788 59.8366 33.9904 60.013 33.6031C60.2081 33.1749 60.0475 32.9157 59.3992 32.6123C58.2825 32.0898 58.0442 31.4634 58.6961 30.7645C59.037 30.3991 59.0732 30.384 59.6128 30.384C60.2259 30.384 60.4676 30.5076 60.3953 30.7843C60.3535 30.944 60.2912 30.9568 59.8046 30.9059C59.357 30.8591 59.2281 30.8784 59.0774 31.0148C58.6837 31.3711 58.9327 31.8949 59.6265 32.1697C59.8012 32.2388 60.0812 32.4157 60.2487 32.5628C60.5132 32.795 60.5532 32.8878 60.5532 33.269C60.5532 34.2152 59.532 34.7603 58.5553 34.3355Z" fill="#FEAE01" stroke="#FEAE01" stroke-width="0.0921659"/>
<path d="M48.7235 34.237C48.7531 34.1596 48.859 34.0526 48.9599 33.4733C49.1111 33.3221 49.2219 33.3365 49.3622 33.5253C49.4629 33.6609 49.512 33.6683 49.6707 33.5714C49.9506 33.4005 50.1383 33.4301 50.1383 33.6451C50.1383 33.749 50.2016 33.9564 50.2789 34.106L50.4195 34.3779H49.5445C48.7975 34.3779 48.6774 34.3572 48.7235 34.237Z" fill="#003246" stroke="#003246" stroke-width="0.0921659"/>
<path d="M24.9218 33.958C25.5225 33.3573 25.6785 32.6057 25.4501 31.4126C25.4435 31.3785 25.2933 31.1607 25.1162 30.9287L24.7942 30.5069H25.3006H25.8068V32.4424V34.3779H25.1544H24.502L24.9218 33.958Z" fill="#003246" stroke="#003246" stroke-width="0.0921659"/>
<path d="M63.5386 34.3618C63.5078 34.3118 63.7669 33.4032 64.1146 32.3428C64.1146 32.3428 64.7467 30.4146 65.3638 30.4608L66.0134 32.3826C66.5044 33.8354 66.6347 34.3218 66.5472 34.3759C66.3014 34.5278 66.1264 34.3596 65.9449 33.7971L65.7606 33.2258L65.055 33.1991L64.3495 33.1722L64.1521 33.7654C64.0156 34.1757 63.8992 34.3732 63.7748 34.4057C63.6758 34.4316 63.5695 34.4119 63.5386 34.3618ZM65.5301 32.5951C65.5301 32.4899 65.2851 31.7089 65.1063 31.2442C65.0738 31.1599 64.9689 31.3364 64.8372 31.6965C64.4458 32.7665 64.4372 32.7189 65.0215 32.7189C65.3858 32.7189 65.5301 32.6838 65.5301 32.5951Z" fill="#FEAE01" stroke="#FEAE01" stroke-width="0.0921659"/>
<path d="M42.8574 33.5484V32.7189H43.2579C43.7702 32.7189 43.8947 32.861 44.1249 33.7097C44.2979 34.3475 44.2985 34.3779 44.1402 34.3779C43.9096 34.3779 43.8443 34.2342 43.9778 34.0204C44.0687 33.8749 44.0648 33.8088 43.958 33.6801C43.8851 33.5922 43.7839 33.3919 43.7331 33.2348C43.6571 32.9995 43.5922 32.9493 43.3643 32.9493C42.7909 33.1211 43.1017 34.0346 43.0818 34.1386C42.96 34.6242 42.8574 34.3546 42.8574 33.5484Z" fill="#12323C" stroke="#12323C" stroke-width="0.0921659"/>
<path d="M57.7879 33.7328C57.7119 33.6837 57.5197 33.6674 56.7197 33.5484C56.4573 33.5484 56.3606 33.3709 56.4433 33.0413C56.4903 32.8543 56.5579 32.811 56.8035 32.811C56.9699 32.811 57.1554 32.8605 57.2159 32.921C57.3811 33.0862 57.8801 32.5777 57.8801 32.244C57.8801 31.8903 57.6177 31.7615 57.1523 31.8868C56.5732 32.0427 56.3245 31.829 56.4596 31.2911C56.5095 31.092 56.5606 31.0557 56.7307 31.0984C56.846 31.1274 57.1315 31.1249 57.3652 31.0928C57.7026 31.0465 57.8138 30.9851 57.9051 30.7938C58.0192 30.5549 58.4331 30.4002 58.4331 30.5964C58.4331 30.6527 58.3449 30.818 58.2371 30.9639C58.0112 31.2694 58.0467 31.6814 58.3505 32.2768C58.4841 32.5384 58.5861 32.6267 58.7554 32.6267C58.8968 32.6267 59.0401 32.7156 59.137 32.8634C59.2539 33.042 59.3442 33.0871 59.5041 33.0469C59.6521 33.0098 59.7431 33.0441 59.8055 33.1608C59.9965 33.5178 59.6031 33.724 58.8467 33.6633C58.4749 33.6334 58.2515 33.6537 58.2099 33.7211C58.1317 33.8476 57.9726 33.8521 57.7879 33.7328Z" fill="#003246" stroke="#003246" stroke-width="0.0921659"/>
<path d="M69.6579 32.3962L69.6313 30.4146L70.7015 30.4146L71.7717 30.4147L71.7283 30.6416C71.687 30.8577 71.6495 30.8697 70.9347 30.895L70.1843 30.9216V31.5207V32.1198L70.8986 32.1467C71.5316 32.1706 71.6129 32.1937 71.6129 32.3502C71.6129 32.5067 71.5316 32.5299 70.8986 32.5537L70.1843 32.5806V33.2258V33.871L70.9908 33.8976C71.779 33.9236 71.7972 33.9294 71.7972 34.1511V34.3779H70.7408H69.6844L69.6579 32.3962Z" fill="#FEAE01" stroke="#FEAE01" stroke-width="0.0921659"/>
<path d="M48.0186 34.2553C48.0186 34.1879 48.2899 33.2962 48.6216 32.2737C48.6216 32.2737 49.2246 30.4147 49.8165 30.4147L50.4613 32.3231C50.816 33.3727 51.1199 34.2644 51.1368 34.3047C51.1537 34.3449 51.0431 34.3779 50.8909 34.3779C50.6321 34.3779 50.6013 34.339 50.4137 33.7751L50.213 33.1722L49.5125 33.1991L48.8118 33.2258L48.6279 33.8018C48.4723 34.2888 48.411 34.3779 48.2312 34.3779C48.1142 34.3779 48.0186 34.3227 48.0186 34.2553ZM50.0273 32.6037C49.8119 31.8381 49.5491 31.153 49.494 31.2139C49.4561 31.2559 49.3188 31.6117 49.189 32.0046L48.9528 32.7189H49.5063C49.9049 32.7189 50.0506 32.6866 50.0273 32.6037Z" fill="#FEAE01" stroke="#FEAE01" stroke-width="0.0921659"/>
<path d="M76.6821 32.3963C76.6821 32.3963 76.6821 30.4147 77.2351 30.4147V32.1659V33.917H78.0646C78.8879 33.917 78.8941 33.9188 78.8941 34.1475V34.3779H77.7881H76.6821V32.3963Z" fill="#FEAE01" stroke="#FEAE01" stroke-width="0.0921659"/>
<path d="M64.2836 34.106C64.3609 33.9564 64.4243 33.7477 64.4243 33.6422C64.4243 33.4127 64.6874 33.2855 65.3953 33.3668C65.571 33.5126 65.7093 33.7616 65.8104 34.1142L65.886 34.3779H65.0146H64.1431L64.2836 34.106Z" fill="#003246" stroke="#003246" stroke-width="0.0921659"/>
<path d="M34.6543 32.4424C34.6543 30.627 34.6647 30.5069 34.8232 30.5069C35.0186 30.5069 35.0464 30.6979 34.9141 31.1328C34.7853 31.5564 34.8673 31.7463 35.113 31.5928C35.2618 31.4999 35.2995 31.3783 35.2995 30.9916C35.2995 30.725 35.3409 30.5069 35.3916 30.5069C35.4501 30.5069 35.4838 31.2135 35.4838 32.4424V34.3779H35.069H34.6543V32.4424Z" fill="#12323C" stroke="#12323C" stroke-width="0.0921659"/>
<path d="M33.6102 34.3164C33.5764 34.2826 33.5488 34.1789 33.5488 34.086C33.5488 33.9354 33.4636 33.917 32.7653 33.917H31.9819V32.212C31.9819 30.5684 31.9886 30.5069 32.1663 30.5069C32.3594 30.5069 32.4216 30.7639 32.2676 30.9263C32.222 30.9745 32.1742 31.5115 32.1615 32.1198C32.125 33.8596 32.0406 33.6838 32.9266 33.7155C33.3449 33.7305 33.7146 33.7715 33.8957 33.8249C33.8711 32.1538 33.9276 30.5069 34.0096 30.5069C34.0681 30.5069 34.1017 31.2135 34.1017 32.4424V34.3779H33.8867C33.7685 34.3779 33.6441 34.3502 33.6102 34.3164Z" fill="#12323C" stroke="#12323C" stroke-width="0.0921659"/>
<path d="M74.1959 33.894C74.1985 33.2757 74.3817 33.0384 74.9185 32.958C75.4411 32.8796 76.0807 32.438 76.2104 32.0659C76.3324 31.7161 76.1856 30.9852 75.9567 30.8028C75.8257 30.6984 75.8244 30.6734 75.9455 30.5969C76.0212 30.5489 76.2181 30.509 76.3828 30.5083L76.6823 30.5069V32.4424V34.3779H75.4381H74.1938L74.1959 33.894ZM76.3697 33.8267C76.3945 33.3353 76.3439 33.2242 76.1633 33.3741C75.6423 33.6512 76.1325 32.8523 75.9999 32.8528C75.8181 32.671 75.5773 32.7414 75.5107 32.9958C75.2734 33.1061 74.894 33.1061 74.7089 33.2258C74.4323 33.2258 74.3831 33.6349 74.6585 33.8879C74.3314 34.117 74.4493 34.1852 75.2307 34.2187C76.4221 34.2698 76.346 34.2958 76.3697 33.8267Z" fill="#12323C" stroke="#12323C" stroke-width="0.0921659"/>
<path d="M63.9862 34.2627C64.0096 34.1992 64.1009 33.9281 64.1891 33.6599L64.3494 33.1722L65.0509 33.1991L65.7525 33.2258L65.9175 33.6866C66.0083 33.9401 66.0827 34.2027 66.0829 34.2703C66.0836 34.5105 65.8776 34.3198 65.7568 33.9683C65.6893 33.7719 65.5499 33.5271 65.4471 33.4243C65.2633 33.2406 65.257 33.2404 65.067 33.4122C64.9104 33.554 64.8592 33.5635 64.7966 33.4622C64.6874 33.2855 64.4243 33.4127 64.4243 33.6422C64.4243 33.8906 64.172 34.3779 64.0433 34.3779C63.9885 34.3779 63.9628 34.3261 63.9862 34.2627Z" fill="#12323C" stroke="#12323C" stroke-width="0.0921659"/>
<path d="M26.0381 34.4534C26.0138 34.3865 25.9828 33.4499 25.9694 32.3721C25.9469 30.574 25.9581 30.4082 26.1062 30.3613C26.1948 30.3332 26.3401 30.3331 26.4287 30.3612C26.5779 30.4084 26.5865 30.5674 26.544 32.4642C26.4981 34.5074 26.497 34.5162 26.2901 34.5456C26.1758 34.5618 26.0625 34.5204 26.0381 34.4534ZM26.4307 32.4654C26.4095 30.92 26.3849 30.6451 26.2675 30.6451C26.1505 30.6451 26.1253 30.9069 26.104 32.3473C26.0902 33.2834 26.0992 34.1026 26.1241 34.1675C26.1491 34.2325 26.2339 34.2857 26.3126 34.2857C26.438 34.2857 26.4526 34.0601 26.4307 32.4654Z" fill="#C09F43" stroke="#C09F43" stroke-width="0.0921659"/>
<path d="M68.0186 32.6772V30.9765L68.5946 30.9491C69.112 30.9245 69.1737 30.9005 69.6775 30.5069V32.4424C69.6775 34.0163 69.654 34.3779 69.5517 34.3779C69.4499 34.3779 69.4295 34.0967 69.4449 32.9008C69.4573 31.9435 69.4285 31.38 69.3633 31.2992C69.2427 31.1496 68.6489 31.0474 68.4858 31.1481C68.3674 31.2213 68.2063 33.1851 68.253 33.9862C68.2696 34.2709 68.2407 34.3779 68.1472 34.3779C68.0418 34.3779 68.0186 34.0711 68.0186 32.6772Z" fill="#12323C" stroke="#12323C" stroke-width="0.0921659"/>
<path d="M66.0567 32.5111C65.7128 31.4849 65.4328 30.6141 65.4346 30.576C65.4363 30.538 65.6421 30.5069 65.8921 30.5069C66.2932 30.5069 66.35 30.5312 66.376 30.7143C66.4024 30.9005 66.4641 30.9245 66.9815 30.9491L67.5575 30.9765V32.6849C67.5575 34.0106 67.5317 34.3846 67.4423 34.3547C67.3567 34.3262 67.3251 33.9184 67.3193 32.7658L67.3114 31.2154L67.0428 31.1962C66.895 31.1857 66.6497 31.1374 66.4976 31.0888C66.3077 31.0282 66.1569 31.0339 66.0158 31.1069L65.8104 31.2132L65.9927 31.5708C66.093 31.7674 66.175 32.0149 66.175 32.1208C66.175 32.2267 66.22 32.3583 66.2749 32.4133C66.3299 32.4682 66.4541 32.8152 66.5511 33.1844C66.648 33.5536 66.7937 33.929 66.8749 34.0188C67.0278 34.1877 66.9836 34.3781 66.7917 34.3775C66.7312 34.3773 66.4019 33.5412 66.0567 32.5111Z" fill="#12323C" stroke="#12323C" stroke-width="0.0921659"/>
<path d="M35.5482 34.4114C35.5128 34.376 35.4839 33.4623 35.4839 32.3809V30.4147L36.4286 30.4161C37.4172 30.4176 37.6673 30.4848 37.5755 30.724C37.5335 30.8336 37.3499 30.8741 36.8017 30.8946L36.083 30.9216L36.0557 31.5438L36.0285 32.1659H36.714C37.2557 32.1659 37.4114 32.1967 37.4559 32.3124C37.5549 32.5704 37.4236 32.6267 36.7227 32.6267H36.0369V33.5023C36.0369 33.9839 35.9988 34.3779 35.9523 34.3779C35.9057 34.3779 35.8102 34.3999 35.7401 34.4268C35.67 34.4537 35.5836 34.4468 35.5482 34.4114Z" fill="#E8B137" stroke="#E8B137" stroke-width="0.0921659"/>
<path d="M57.8291 34.294C57.8576 34.2479 57.8557 34.1442 57.8247 34.0636C57.7791 33.9448 57.6127 33.917 56.9448 33.917H56.1211L56.1482 33.2488L56.1753 32.5806L56.8896 32.5537C57.5281 32.5297 57.6039 32.5076 57.6039 32.3463C57.6039 32.1851 57.5375 32.1658 56.9817 32.1645C56.6395 32.1638 56.3054 32.1287 56.2393 32.0868C56.1569 32.0345 56.1279 31.8392 56.1472 31.4661L56.1753 30.9216L56.9817 30.895C57.7123 30.8709 57.7882 30.8514 57.9189 30.771C57.8114 30.9863 57.7091 31.0457 57.3639 31.093C57.131 31.1249 56.8463 31.1274 56.731 31.0984C56.5608 31.0557 56.5098 31.092 56.4598 31.2911C56.3248 31.829 56.5734 32.0427 57.1525 31.8868C57.618 31.7615 57.8804 31.8903 57.8804 32.244C57.8804 32.5777 57.3814 33.0863 57.2161 32.921C57.1557 32.8605 56.9701 32.811 56.8038 32.811C56.5581 32.811 56.4905 32.8543 56.4436 33.0413C56.3608 33.3709 56.4576 33.5484 57.3461 33.6967C57.4961 33.6666 57.7037 33.6875 57.8073 33.7429C57.9468 33.8176 58.0511 33.8139 58.2102 33.7287C58.3457 33.6562 58.6064 33.6326 58.9169 33.6647C59.5915 33.7343 59.9913 33.5076 59.8057 33.1608C59.7433 33.0441 59.6523 33.0098 59.5043 33.0469C59.3444 33.0871 59.2542 33.042 59.1372 32.8634C59.0404 32.7156 58.897 32.6267 58.7557 32.6267C58.5863 32.6267 58.4843 32.5384 58.3508 32.2768C58.047 31.6814 58.0114 31.2694 58.2373 30.9639C58.3451 30.818 58.4334 30.6555 58.9133 30.5069L58.6273 30.8327C58.0579 31.4812 58.3318 32.1129 59.3992 32.6123C60.0475 32.9157 60.2081 33.1749 60.013 33.6031C59.8366 33.9904 59.3436 34.0788 58.5613 33.8636C58.3083 33.794 58.1879 34.1483 58.4189 34.2831C58.5345 34.3506 58.4749 34.373 58.1745 34.3751C57.956 34.3767 57.8006 34.3401 57.8291 34.294Z" fill="#12323C" stroke="#12323C" stroke-width="0.0921659"/>
<path d="M62.6824 32.8964C62.7086 31.147 62.7353 31.0517 63.1794 31.1238C63.4437 31.1666 63.5551 31.1347 63.7365 30.9643C63.8612 30.8472 63.9633 30.6963 64.4253 30.7143C64.4264 30.9274 64.1027 31.9594 63.7193 32.965C63.6 33.2779 63.5025 33.5968 63.5025 33.6739C63.4936 33.9519 63.0588 34.3131 62.8128 34.1922C62.673 34.3083 62.6628 34.207 62.6824 32.8964Z" fill="#003246" stroke="#003246" stroke-width="0.0921659"/>
<path d="M20.8296 34.3273C20.8296 34.2946 20.9955 34.0794 21.1983 33.8491C21.401 33.6188 21.5669 33.3615 21.5669 33.2773C21.5669 33.1932 21.6129 33.0783 21.6692 33.0221C21.7332 32.9581 21.7585 32.6491 21.7369 32.1972C21.7083 31.6002 21.6597 31.4127 21.4573 31.1181C21.1614 30.6872 21.2067 30.5069 21.6111 30.5069C21.8885 30.5069 21.9159 30.5339 21.9619 30.8525C21.9894 31.0426 21.9901 31.7373 21.9633 32.3963C21.9126 33.6463 21.9123 33.7251 21.9553 34.1014C21.9806 34.3229 21.9595 34.3329 21.4056 34.3592C21.0888 34.3744 20.8296 34.3599 20.8296 34.3273Z" fill="#003246" stroke="#003246" stroke-width="0.0921659"/>
<path d="M78.8943 34.1475C78.8943 33.9188 78.8882 33.917 78.0648 33.917H77.2354V32.212C77.2354 31.1367 77.2694 30.5069 77.3275 30.5069C77.3852 30.5069 77.4197 31.072 77.4197 32.0177V33.5284L77.6478 33.5856C77.7732 33.6171 78.1212 33.6686 78.421 33.6999L78.9661 33.7569L78.8882 33.3531C78.7555 32.6666 78.789 31.8469 78.9655 31.4526C79.2292 30.8636 79.6219 30.5062 80.0001 30.511L80.3229 30.515L79.9823 30.695C78.6827 31.3814 78.6641 33.4218 79.9503 34.2062L80.2307 34.3772L79.5625 34.3775C78.9111 34.3779 78.8943 34.3721 78.8943 34.1475Z" fill="#12323C" stroke="#12323C" stroke-width="0.0921659"/>
<path d="M17.2575 32.3272C17.2807 32.2638 17.436 31.8283 17.6026 31.3594C17.8798 30.5791 17.9259 30.5069 18.1464 30.5067L18.3872 30.5065L18.3583 31.4745L18.3292 32.4424H17.7724C17.3658 32.4424 17.2267 32.4113 17.2575 32.3272ZM18.1384 32.2396C18.2899 32.0881 18.2751 31.056 18.1185 30.8497C18.0052 30.7003 17.9884 30.7158 17.9309 31.0223C17.8961 31.2075 17.8338 31.4265 17.7926 31.509C17.5506 31.992 17.4964 32.159 17.5523 32.2493C17.6355 32.3839 18 32.378 18.1384 32.2396Z" fill="#12323C" stroke="#12323C" stroke-width="0.0921659"/>
<path d="M31.2844 32.4423C31.281 31.3779 31.3121 30.5069 31.3536 30.5069C31.395 30.5069 31.429 31.3779 31.429 32.4424C31.429 33.5069 31.3979 34.3779 31.3598 34.3778C31.3218 34.3777 31.2878 33.5067 31.2844 32.4423Z" fill="#12323C" stroke="#12323C" stroke-width="0.0921659"/>
<path d="M16.6821 34.2769C16.6821 34.2213 16.7393 34.0658 16.8091 33.9312C16.879 33.7967 16.973 33.5622 17.0182 33.4101C17.0844 33.187 17.1577 33.1281 17.3981 33.1048C17.5948 32.9945 18.2456 32.8406 18.295 32.9031L18.2637 33.3552C18.2361 33.7521 18.1889 33.8422 17.8774 34.0926C17.5972 34.3179 17.4341 34.3779 17.1023 34.3779C16.8592 34.3779 16.6821 34.3353 16.6821 34.2769Z" fill="#003246" stroke="#003246" stroke-width="0.0921659"/>
<path d="M14.8094 34.3087C14.7017 34.1252 14.8706 33.6557 15.5181 33.3871C15.554 33.5212 15.5062 33.6863 15.3832 33.8543C15.2785 33.9971 15.2156 34.1734 15.2435 34.246C15.2788 34.338 15.2269 34.3779 15.0721 34.3779C14.9499 34.3779 14.8317 34.3468 14.8094 34.3087Z" fill="#003246" stroke="#003246" stroke-width="0.0921659"/>
<path d="M74.237 32.3298C74.2083 32.255 74.1972 31.9075 74.2123 31.5577C74.2394 30.9333 74.2448 30.9211 74.5045 30.8914C75.3802 30.7913 75.8875 31.5173 75.3659 32.1238C75.1109 32.4203 74.3267 32.5635 74.237 32.3298ZM75.2765 31.8576C75.3971 31.5927 75.1875 31.1586 74.9282 31.1367C74.4324 31.0946 74.4386 31.0898 74.4123 31.5416C74.3802 32.0953 74.5398 32.2885 74.9198 32.156C75.0641 32.1057 75.2246 31.9714 75.2765 31.8576Z" fill="#12323C" stroke="#12323C" stroke-width="0.0921659"/>
<path d="M60.2396 34.0645C60.5123 33.7918 60.5529 33.6915 60.5529 33.2907C60.5529 32.885 60.5167 32.7983 60.2484 32.5628C60.0809 32.4157 59.8009 32.2388 59.6263 32.1697C58.9325 31.8949 58.6834 31.3711 59.0772 31.0148C59.2286 30.8778 59.3564 30.8592 59.8145 30.907C60.3757 30.9656 60.4354 30.9306 60.846 30.7143C60.8725 30.9005 60.9341 30.9245 61.4515 30.9491L62.0276 30.9765V32.6957C62.0276 33.9976 62.0018 34.3889 61.9209 34.3081C61.8134 34.2005 61.7985 32.0676 61.9023 31.6445C61.9291 31.5352 61.9046 31.3589 61.8479 31.2528C61.7649 31.0978 61.6569 31.0599 61.2983 31.0599C61.0112 31.0599 60.8105 31.0098 60.7356 30.9196C60.6326 30.7956 60.6047 30.8001 60.4934 30.959C60.3859 31.1124 60.2939 31.131 59.8629 31.0865C59.2908 31.0275 59.0783 31.1369 59.0783 31.4906C59.0783 31.6632 59.1573 31.7461 59.4239 31.8527C60.047 32.1019 60.3881 32.3012 60.5124 32.4885C60.7061 32.7806 60.8684 33.5004 60.7845 33.6955C60.743 33.792 60.705 33.9124 60.7001 33.9631C60.6952 34.0138 60.6572 34.0553 60.6156 34.0553C60.574 34.0553 60.4994 34.1279 60.4497 34.2166C60.4 34.3052 60.262 34.3779 60.1428 34.3779C59.9344 34.3779 59.9381 34.366 60.2396 34.0645Z" fill="#12323C" stroke="#12323C" stroke-width="0.0921659"/>
<path d="M45.459 32.4193L45.4838 30.4608H46.4977C47.45 30.4608 47.5115 30.472 47.5115 30.6451C47.5115 30.8082 47.4422 30.8322 46.9124 30.8531C45.9081 30.8926 45.8983 30.8983 45.9 31.4534C45.9007 31.7185 45.9331 31.9853 45.9718 32.0463C46.0134 32.1118 46.3234 32.1683 46.7308 32.1845C47.2691 32.206 47.4193 32.2421 47.4193 32.3502C47.4193 32.4578 47.2555 32.4987 46.682 32.5345L45.9447 32.5806V33.2258V33.871L46.7742 33.917C47.5479 33.96 47.6057 33.977 47.6332 34.1705C47.6623 34.3757 47.6511 34.3779 46.5484 34.3779H45.4341L45.459 32.4193Z" fill="#E8B137" stroke="#E8B137" stroke-width="0.0921659"/>
<path d="M16.5903 34.2637C16.5903 34.1755 16.6984 33.8334 16.8304 33.5033C17.06 32.9298 17.0844 32.9032 17.3834 32.9032C17.7818 32.9032 17.7938 33.0664 17.3984 33.1048C17.1589 33.128 17.0837 33.1878 17.0152 33.4101C16.8754 33.8637 16.5904 34.4362 16.5903 34.2637Z" fill="#20332E" stroke="#20332E" stroke-width="0.0921659"/>
<path d="M26.5439 32.4424C26.5439 30.9554 26.5707 30.507 26.6592 30.507C26.7432 30.507 26.7718 30.7248 26.765 31.3134C26.7598 31.7569 26.7495 32.6279 26.7419 33.2488C26.7336 33.931 26.6918 34.3779 26.6361 34.3779C26.5776 34.3779 26.5439 33.6712 26.5439 32.4424Z" fill="#12323C" stroke="#12323C" stroke-width="0.0921659"/>
<path d="M60.4266 34.2426C60.4552 34.1681 60.5265 34.1163 60.7849 33.6955C60.8688 33.5004 60.7064 32.7806 60.5127 32.4885C60.3885 32.3012 60.0474 32.1019 59.4242 31.8527C59.1577 31.7461 59.0786 31.6632 59.0786 31.4906C59.0786 31.1369 59.2911 31.0275 59.8632 31.0865C60.2943 31.131 60.3863 31.1124 60.4937 30.959C60.6051 30.8001 60.633 30.7956 60.7359 30.9196C60.8109 31.0098 61.0115 31.0599 61.2986 31.0599C61.6318 31.0599 61.7652 31.1007 61.8247 31.2212C61.8686 31.3098 61.8786 31.9839 61.847 32.7189C61.8154 33.4539 61.824 34.1279 61.8659 34.2166C61.9354 34.3635 61.8726 34.3779 61.1585 34.3779C60.5072 34.3779 60.3835 34.355 60.4266 34.2426Z" fill="#003246" stroke="#003246" stroke-width="0.0921659"/>
<path d="M79.9332 34.1956C78.4566 33.2976 78.8017 30.8493 80.4489 30.5369C80.9558 30.4407 81.5421 30.4641 81.6897 30.5864C81.9393 30.7933 81.7662 30.8906 81.2584 30.8286C80.6661 30.7562 80.2297 30.925 79.829 31.3814C79.5644 31.6827 79.5391 31.7663 79.5391 32.3422C79.5391 33.5414 79.9889 34.0092 81.1415 34.0092C81.4989 34.0092 81.7511 34.0485 81.7511 34.1042C81.7511 34.2416 81.6008 34.278 80.8589 34.3192C80.3447 34.3477 80.1381 34.3202 79.9332 34.1956Z" fill="#FEAE01" stroke="#FEAE01" stroke-width="0.0921659"/>
<path d="M27.1585 34.3164C27.0584 34.2162 27.0884 33.8703 27.2077 33.7511C27.3417 33.6171 27.8013 33.6046 27.8805 33.7327C28.0622 34.0268 28.8087 33.5745 28.7414 33.211C28.7221 33.107 28.4762 32.9298 28.1054 32.7524C27.4432 32.4359 27.1961 32.1486 27.0869 31.5682C27.0279 31.2546 27.0534 31.1454 27.254 30.8525C27.3925 30.6505 27.5662 30.5069 27.6722 30.5069C27.8328 30.5069 27.8208 30.5442 27.5675 30.8327C27.017 31.4596 27.2356 32.0924 28.1524 32.5256C28.852 32.8561 29.1056 33.1651 28.9772 33.5305C28.8221 33.9712 28.3003 34.0895 27.5015 33.8648C27.2378 33.7906 27.1137 34.0947 27.3401 34.2603C27.4721 34.3568 27.4757 34.3779 27.3605 34.3779C27.2832 34.3779 27.1924 34.3502 27.1585 34.3164Z" fill="#12323C" stroke="#12323C" stroke-width="0.0921659"/>
<path d="M51.6036 34.2166C51.5751 33.7438 51.6258 30.5557 51.6624 30.5192C51.686 30.4955 51.7054 31.354 51.7054 32.427C51.7054 33.5 51.6847 34.3779 51.6593 34.3779C51.634 34.3779 51.6089 34.3052 51.6036 34.2166Z" fill="#12323C" stroke="#12323C" stroke-width="0.0921659"/>
<path d="M43.0815 34.1386C43.1151 34.0049 43.0956 33.844 43.0375 33.774C42.8893 33.7378 43.1832 32.8548 43.364 32.9493C43.5919 32.9493 43.6567 32.9995 43.7328 33.2348C43.7836 33.3919 43.8848 33.5922 43.9193 34.2895C43.9515 34.3416 43.7783 34.3779 43.4977 34.3779C43.0311 34.3779 43.0227 34.373 43.0815 34.1386Z" fill="#003246" stroke="#003246" stroke-width="0.0921659"/>
<path d="M40.7673 34.3087C40.8811 34.1156 40.6365 33.8317 40.3046 33.7719C40.1119 33.7371 39.901 33.6665 39.8361 33.615C39.7554 33.551 39.6439 33.5551 39.4836 33.6282C39.1606 33.7753 39.0785 33.6949 39.0785 33.2319C39.0785 32.8703 39.1019 32.8294 39.3356 32.7827C39.4771 32.7544 39.7664 32.7545 39.9786 32.7829C40.3317 32.8303 40.3721 32.8142 40.4565 32.5924C40.5169 32.4333 40.5176 32.2687 40.4583 32.1128C40.3804 31.9081 40.3201 31.8788 40.0202 31.9004C39.8289 31.9143 39.6226 31.8947 39.5617 31.8571C39.5008 31.8195 39.3726 31.8307 39.2768 31.8819C39.0427 32.0073 39.0058 31.9484 39.0701 31.5531C39.1366 31.1448 39.3677 30.9659 39.6228 31.1252C39.8737 31.2819 40.4119 31.17 40.6558 30.9105C40.8208 30.7349 40.955 30.6915 41.3296 30.6926C42.0809 30.6949 42.0625 30.6518 42.0847 32.4593C42.0954 33.3371 42.0842 34.1279 42.0598 34.2166C42.0229 34.3506 41.9064 34.3779 41.371 34.3779C41.0166 34.3779 40.7449 34.3468 40.7673 34.3087Z" fill="#003246" stroke="#003246" stroke-width="0.0921659"/>
<path d="M21.9605 34.1474C21.9236 33.7504 21.9232 33.6322 21.9529 32.0507C21.9746 30.8926 22.0107 30.5069 22.0971 30.5069C22.1856 30.5069 22.2123 30.9555 22.2123 32.4424C22.2123 33.9293 22.1856 34.3779 22.0971 34.3779C22.0337 34.3779 21.9723 34.2742 21.9605 34.1474Z" fill="#12323C" stroke="#12323C" stroke-width="0.0921659"/>
<path d="M17.8987 34.0748C18.18 33.8307 18.2458 33.7061 18.2743 33.364C18.2966 33.0958 18.3145 33.2016 18.3249 33.6636L18.341 34.3779L17.9493 34.3744L17.5576 34.371L17.8987 34.0748Z" fill="#12323C" stroke="#12323C" stroke-width="0.0921659"/>
<path d="M71.7975 34.151C71.7975 33.9294 71.7792 33.9236 70.991 33.8976L70.1846 33.871V33.2258V32.5806L70.8989 32.5537C71.5319 32.5298 71.6131 32.5067 71.6131 32.3502C71.6131 32.1937 71.5319 32.1706 70.8989 32.1467L70.1846 32.1198V31.5207V30.9216L70.9449 30.8949C71.6295 30.8708 71.7053 30.8501 71.7053 30.6875C71.7053 30.5882 71.7675 30.5069 71.8436 30.5069C72.1621 30.5069 71.9448 30.9422 71.5422 31.1104C71.2764 31.2215 71.1607 31.2259 70.9073 31.1343C70.4954 30.9853 70.2925 31.162 70.379 31.5945C70.4334 31.8664 70.4677 31.8903 70.8182 31.9013C71.8565 31.9337 71.9839 31.9986 71.8365 32.4189C71.7545 32.6522 71.6916 32.6803 71.0581 32.765L70.3689 32.8571V33.2719V33.6866L71.0578 33.7141C71.5301 33.733 71.7982 33.7882 71.9104 33.8897C72.1097 34.0701 72.1258 34.3779 71.9357 34.3779C71.8503 34.3779 71.7975 34.2912 71.7975 34.151Z" fill="#12323C" stroke="#12323C" stroke-width="0.0921659"/>
<path d="M12.663 33.9709C12.5487 33.6727 12.6751 33.3256 12.9582 33.1609C13.3497 32.9333 14.2654 32.7539 14.3918 32.8803C14.5482 33.0367 14.3988 33.2988 13.9846 33.5945C13.2811 34.0966 12.7674 34.2428 12.663 33.9709ZM13.3108 33.8799C13.663 33.7327 14.3976 33.1017 14.3348 33.0003C14.2657 32.8884 13.3112 33.0575 13.0516 33.2276C12.8023 33.3909 12.6549 33.7389 12.7617 33.9118C12.8413 34.0404 12.9402 34.0347 13.3108 33.8799Z" fill="#E8B137" stroke="#E8B137" stroke-width="0.0921659"/>
<path d="M20.5364 34.1385C21.2395 33.7882 21.5209 33.275 21.5209 32.3435C21.5209 31.7416 21.4871 31.5944 21.275 31.2739C21.1311 31.0564 20.8636 30.8204 20.6299 30.7047L20.2306 30.5071L20.7704 30.507C21.1918 30.5069 21.2996 30.5348 21.2614 30.6342C21.2345 30.7042 21.3225 30.9219 21.4569 31.118C21.6536 31.4051 21.7081 31.6067 21.7368 32.1522C21.7794 32.9631 21.6234 33.3867 21.0399 34.0438C20.7991 34.315 20.6785 34.3779 20.3997 34.3779H20.0562L20.5364 34.1385Z" fill="#12323C" stroke="#12323C" stroke-width="0.0921659"/>
<path d="M44.6407 33.6667C44.5486 33.2756 44.3877 32.8564 44.2834 32.7351L44.0937 32.5145L44.397 32.2112C44.6438 31.9645 44.7005 31.8356 44.7005 31.5207C44.7005 31.2034 44.644 31.0771 44.3871 30.8203L44.0737 30.5069H44.3338C44.551 30.5069 44.6122 30.5619 44.7039 30.8398C44.8702 31.3439 44.7757 32.1545 44.5288 32.3407L44.328 32.4922L44.518 32.8853C44.6225 33.1016 44.7517 33.4963 44.8052 33.7624C44.8816 34.1427 44.9399 34.2462 45.0779 34.2462C45.2448 34.2462 45.2535 34.1537 45.2535 32.3766C45.2535 31.1916 45.2872 30.5069 45.3456 30.5069C45.4041 30.5069 45.4378 31.2135 45.4378 32.4424C45.4378 32.4424 45.4378 34.3779 44.8084 34.3779L44.6407 33.6667Z" fill="#20332E" stroke="#20332E" stroke-width="0.0921659"/>
<path d="M47.6338 34.1758C47.6054 33.9757 47.5545 33.9604 46.7741 33.917L45.9447 33.871V33.2258V32.5806L46.682 32.5345C47.2554 32.4987 47.4193 32.4578 47.4193 32.3502C47.4193 32.2421 47.2691 32.206 46.7307 32.1845C46.3234 32.1683 46.0134 32.1118 45.9717 32.0463C45.933 31.9853 45.9007 31.7222 45.9 31.4615C45.8983 30.8977 45.9336 30.8756 46.8364 30.8756C47.4051 30.8756 47.4884 30.8534 47.5308 30.6912C47.6052 30.4067 47.7535 30.4733 47.6848 30.7604C47.5877 31.1667 47.5619 31.1789 46.9225 31.1203C46.1616 31.0505 46.0497 31.1119 46.1326 31.5533C46.2005 31.9152 46.1896 31.9113 47.1841 31.9297C47.4439 31.9345 47.5123 31.9775 47.5594 32.1659C47.5935 32.3022 47.5628 32.481 47.4845 32.6037C47.37 32.7829 47.2729 32.811 46.769 32.811C46.4483 32.811 46.1656 32.844 46.1407 32.8843C46.1158 32.9246 46.1194 33.1372 46.1489 33.3569L46.2024 33.7561L46.74 33.6999C47.0356 33.669 47.3717 33.6795 47.4867 33.7233C47.7524 33.8243 47.8854 33.8071 48.1105 33.1315C48.1105 33.016 48.2139 32.6996 48.3401 32.4285C48.4664 32.1573 48.5945 31.7903 48.6248 31.6129C48.7133 31.0952 48.9554 30.5069 49.08 30.5069C49.1568 30.5069 49.0429 30.9733 48.7367 31.9124C48.4847 32.6855 48.208 33.5458 48.1218 33.8243C47.9534 34.3685 47.6882 34.5594 47.6338 34.1758Z" fill="#12323C" stroke="#12323C" stroke-width="0.0921659"/>
<path d="M74.2139 33.1336C74.2388 32.8692 74.2623 32.8551 74.7511 32.811C75.5018 32.7433 75.9971 32.3537 76.0399 31.7972C76.0789 31.2897 76.0242 31.1206 75.7239 30.8203L75.4105 30.5069C75.7955 30.4061 76.0652 30.6997 75.9568 30.8028C76.1856 30.9852 76.3324 31.7161 76.2105 32.0659C76.0807 32.438 75.4412 32.8796 74.9186 32.958C74.6774 32.9941 74.4507 33.0967 74.3522 33.2142C74.1878 33.4101 74.1878 33.4101 74.2139 33.1336Z" fill="#20332E" stroke="#20332E" stroke-width="0.0921659"/>
<path d="M17.5524 32.2493C17.4965 32.159 17.5507 31.992 17.7926 31.509C17.8339 31.4265 17.8962 31.2075 17.931 31.0223C17.9885 30.7158 18.0053 30.7003 18.1186 30.8497C18.2752 31.056 18.29 32.0881 18.1384 32.2396C18.0001 32.378 17.6356 32.3839 17.5524 32.2493Z" fill="#003246" stroke="#003246" stroke-width="0.0921659"/>
<path d="M40.461 34.151C40.461 33.9294 40.4427 33.9236 39.6546 33.8976L38.8481 33.871V33.2258V32.5806L39.5624 32.5537C40.1954 32.5298 40.2767 32.5067 40.2767 32.3502C40.2767 32.1937 40.1954 32.1706 39.5624 32.1467L38.8481 32.1198V31.5207V30.9216L39.6085 30.8949C40.2931 30.8708 40.3689 30.8501 40.3689 30.6875C40.3689 30.5196 40.437 30.5069 41.3366 30.5069H42.3044V32.4424C42.3044 33.9293 42.2776 34.3779 42.1892 34.3779C42.101 34.3779 42.0744 33.9735 42.076 32.6583C42.0775 31.3398 42.0491 30.9099 41.9541 30.815C41.882 30.7428 41.6286 30.6912 41.3461 30.6912C40.9553 30.6912 40.8222 30.7335 40.6559 30.9105C40.412 31.17 39.8738 31.2819 39.6229 31.1252C39.3678 30.9659 39.1366 31.1448 39.0702 31.5531C39.0058 31.9484 39.0428 32.0073 39.2769 31.8819C39.3727 31.8307 39.5009 31.8195 39.5618 31.8571C39.6227 31.8947 39.829 31.9143 40.0203 31.9004C40.3202 31.8788 40.3805 31.9081 40.4584 32.1128C40.5176 32.2687 40.517 32.4333 40.4565 32.5924C40.3722 32.8142 40.3317 32.8303 39.9787 32.7829C39.7665 32.7545 39.4772 32.7544 39.3357 32.7827C39.102 32.8294 39.0786 32.8703 39.0786 33.2319C39.0786 33.6949 39.1607 33.7753 39.4836 33.6282C39.644 33.5551 39.7555 33.551 39.8362 33.615C39.901 33.6665 40.1119 33.7371 40.3046 33.7719C40.6365 33.8317 40.8811 34.1156 40.7674 34.3087C40.6711 34.4723 40.461 34.3642 40.461 34.151Z" fill="#12323C" stroke="#12323C" stroke-width="0.0921659"/>
<path d="M62.5806 32.6728V30.9677H63.1336C63.6619 30.9677 63.6866 30.9575 63.6866 30.7373C63.6866 30.5939 63.7388 30.5069 63.8248 30.5069C64.0332 30.5069 63.991 30.725 63.7362 30.9643C63.5549 31.1347 63.4434 31.1666 63.1791 31.1238C62.735 31.0517 62.7083 31.147 62.6821 32.8964C62.6625 34.207 62.6727 34.3083 62.8126 34.1922C63.3488 34.3839 63.4422 33.7603 63.5022 33.6739C63.5022 33.5969 63.5997 33.2779 63.719 32.9651C64.1024 31.9594 64.4261 30.9274 64.701 30.576C64.7014 30.6141 64.4214 31.4844 64.0789 32.5101L63.4561 34.375L63.0184 34.3765L62.5806 34.3779V32.6728Z" fill="#12323C" stroke="#12323C" stroke-width="0.0921659"/>
<path d="M48.4867 34.2627C48.4907 34.1992 48.5667 33.9401 48.6557 33.6866L48.8174 33.2258L49.5154 33.1991L50.2134 33.1722L50.3738 33.6599C50.462 33.9281 50.5532 34.1992 50.5766 34.2627C50.6 34.3261 50.5743 34.3779 50.5195 34.3779C50.3915 34.3779 50.1385 33.8912 50.1385 33.6451C50.1385 33.4301 49.9508 33.4005 49.6709 33.5714C49.5123 33.6683 49.4632 33.6609 49.3624 33.5253C49.2185 33.3314 49.0912 33.3205 48.9505 33.49C48.8711 33.5858 48.8789 33.6434 48.9831 33.7298C49.1016 33.8283 49.0841 33.8797 48.853 34.1108C48.5607 34.4031 48.4759 34.4382 48.4867 34.2627Z" fill="#12323C" stroke="#12323C" stroke-width="0.0921659"/>
<path d="M12.7618 33.9118C12.655 33.7389 12.8023 33.391 13.0517 33.2276C13.3113 33.0575 14.2658 32.8884 14.3349 33.0003C14.3976 33.1017 13.6631 33.7327 13.3108 33.8799C12.9402 34.0347 12.8413 34.0404 12.7618 33.9118ZM13.6012 33.5857C14.0982 33.2944 14.1587 33.0427 13.7097 33.1333C13.3428 33.2075 12.9597 33.4693 12.9196 33.6733C12.8761 33.8946 13.1297 33.862 13.6012 33.5857Z" fill="#20332E" stroke="#20332E" stroke-width="0.0921659"/>
<path d="M25.8066 32.4424C25.8066 31.2135 25.8403 30.5069 25.8988 30.5069C25.9573 30.5069 25.991 31.2135 25.991 32.4424C25.991 33.6712 25.9573 34.3779 25.8988 34.3779C25.8403 34.3779 25.8066 33.6712 25.8066 32.4424Z" fill="#12323C" stroke="#12323C" stroke-width="0.0921659"/>
<path d="M74.522 32.1124C74.4326 32.023 74.3953 31.83 74.4121 31.5416C74.4384 31.0898 74.4322 31.0946 74.928 31.1367C75.1872 31.1586 75.3969 31.5927 75.2763 31.8576C75.1464 32.1425 74.7022 32.2926 74.522 32.1124Z" fill="#003246" stroke="#003246" stroke-width="0.0921659"/>
<path d="M53.9297 34.1741C53.9172 33.9245 53.9162 33.9242 53.1108 33.8976L52.3043 33.871L52.2791 32.1889C52.2569 30.7009 52.2709 30.5069 52.4009 30.5069C52.5305 30.5069 52.545 30.6936 52.5241 32.0968L52.5004 33.6866L53.1547 33.7135C53.8649 33.7427 54.0511 33.8547 53.9829 34.2115C53.9464 34.4025 53.941 34.3987 53.9297 34.1741Z" fill="#12323C" stroke="#12323C" stroke-width="0.0921659"/>
<path d="M44.7491 33.0921C44.5736 32.7526 44.5708 32.565 44.7399 32.47C44.8122 32.4295 44.8848 32.2304 44.9012 32.0276C44.9176 31.8249 44.9726 31.659 45.0232 31.659C45.1487 31.659 45.1732 32.5475 45.0518 32.6938C44.9828 32.7769 44.9876 32.8509 45.0683 32.9481C45.1904 33.0952 45.135 33.364 44.9824 33.364C44.9314 33.364 44.8265 33.2417 44.7491 33.0921Z" fill="#003246" stroke="#003246" stroke-width="0.0921659"/>
<path d="M24.2951 34.1572C24.9982 33.8298 25.3459 33.2264 25.3459 32.3335C25.3459 31.5375 25.0154 30.9729 24.3782 30.6803L24.0095 30.511L24.3852 30.5089C24.6592 30.5074 24.8116 30.5629 24.949 30.7143C25.4293 31.2436 25.5524 31.5958 25.5435 32.4157C25.5362 33.0934 25.3672 33.5125 24.9217 33.958C24.5751 34.3046 24.4429 34.3777 24.1635 34.3769L23.8252 34.376L24.2951 34.1572Z" fill="#12323C" stroke="#12323C" stroke-width="0.0921659"/>
<path d="M12.9198 33.6734C12.9599 33.4693 13.3431 33.2075 13.71 33.1334C14.1589 33.0427 14.0985 33.2944 13.6014 33.5857C13.13 33.862 12.8763 33.8946 12.9198 33.6734Z" fill="#12323C" stroke="#12323C" stroke-width="0.0921659"/>
<path d="M13.9642 34.0645C14.2171 33.8922 14.6088 33.5604 14.8348 33.3272C15.1948 32.9557 15.2937 32.9032 15.633 32.9032H16.0203L15.775 33.6527C15.6402 34.065 15.517 34.3372 15.5012 34.2577C15.4854 34.1781 15.5372 33.9223 15.6164 33.6892C15.8088 33.1226 15.802 33.0875 15.5004 33.0875C15.3055 33.0875 15.0689 33.2486 14.5557 33.7305C14.1791 34.0841 13.7885 34.3745 13.6878 34.3757C13.5609 34.3771 13.6458 34.2816 13.9642 34.0645Z" fill="#20332E" stroke="#20332E" stroke-width="0.0921659"/>
<path d="M78.2028 33.6869C78.1522 33.6697 77.9551 33.6297 77.7651 33.5979L77.4194 33.54V32.0235V30.5069H78.5367C79.5875 30.5069 79.6464 30.5165 79.5275 30.6682C79.4579 30.7569 79.3505 30.8618 79.2888 30.9015C79.2272 30.9411 79.0923 31.164 78.9893 31.397C78.7893 31.8493 78.7477 32.6279 78.8857 33.341L78.9615 33.7327L78.6283 33.7254C78.445 33.7215 78.2535 33.7041 78.2028 33.6869Z" fill="#003246" stroke="#003246" stroke-width="0.0921659"/>
<path d="M29.1643 34.0674C29.4469 33.8009 29.4935 33.6984 29.4935 33.3426C29.4935 32.7917 29.2558 32.504 28.5091 32.1512C27.7961 31.8144 27.6269 31.533 27.9114 31.1571C28.074 30.9425 28.1444 30.9229 28.7086 30.9365C29.316 30.951 29.3267 30.9472 29.285 30.7291C29.257 30.5823 29.2852 30.5069 29.368 30.5069C29.5226 30.5069 29.5364 30.9303 29.3849 31.0239C29.3252 31.0609 29.0368 31.1012 28.7441 31.1134C28.1322 31.1392 28.0188 31.1883 28.0188 31.4277C28.0188 31.6059 28.4628 31.9816 28.6733 31.9816C28.7388 31.9816 28.9474 32.089 29.1368 32.2203C29.6386 32.5681 29.8159 33.2163 29.5679 33.7975C29.4069 34.1745 29.2122 34.3779 29.0118 34.3779C28.8679 34.3779 28.8962 34.3203 29.1643 34.0674Z" fill="#12323C" stroke="#12323C" stroke-width="0.0921659"/>
<path d="M64.5731 32.4654C64.6676 32.0683 64.8114 31.8806 64.7409 32.2465C64.6995 32.4618 64.7195 32.582 64.806 32.6369C64.8971 32.6946 64.8744 32.7165 64.7219 32.7175C64.5405 32.7187 64.5207 32.6854 64.5731 32.4654Z" fill="#2E381E" stroke="#2E381E" stroke-width="0.0921659"/>
<path d="M51.0733 34.1244C50.961 33.8433 49.8619 30.5903 50.1388 30.7143C50.1393 30.9164 50.5137 31.9268 50.632 32.0451C50.6646 32.0778 50.6914 32.1965 50.6914 32.3089C50.6914 32.4214 50.7533 32.6323 50.8291 32.7775C50.9048 32.9227 50.967 33.1181 50.9673 33.2119C50.9676 33.3056 51.026 33.513 51.097 33.6727C51.2684 34.0585 51.3363 34.3779 51.2469 34.3779C51.2071 34.3779 51.129 34.2639 51.0733 34.1244Z" fill="#12323C" stroke="#12323C" stroke-width="0.0921659"/>
<path d="M43.0792 32.0381C43.0523 31.9679 43.0432 31.7294 43.0591 31.5082C43.0826 31.1803 43.1239 31.1009 43.2826 31.0782C43.391 31.0628 43.605 31.1579 43.7657 31.2931C44.0034 31.4931 44.0374 31.5669 43.9593 31.7127C43.9073 31.81 43.7159 31.9519 43.5342 32.0278C43.1317 32.1959 43.1397 32.1957 43.0792 32.0381Z" fill="#003246" stroke="#003246" stroke-width="0.0921659"/>
<path d="M14.5559 33.7305C15.0692 33.2486 15.3057 33.0875 15.5006 33.0875C15.7948 33.0875 15.8092 33.1602 15.6196 33.6866C15.5465 33.8894 15.4861 34.1279 15.4854 34.2166C15.4846 34.3052 15.4412 34.3779 15.389 34.3779C15.1998 34.3779 15.1967 34.1085 15.383 33.8543C15.506 33.6863 15.5538 33.5212 15.0693 33.5651C14.8563 33.6622 14.7977 33.8223 14.814 34.2627C14.8169 34.3407 14.6656 34.3771 14.3447 34.3757L13.8711 34.3735L14.5559 33.7305Z" fill="#12323C" stroke="#12323C" stroke-width="0.0921659"/>
<path d="M64.8 31.8379C64.8039 31.7901 64.8614 31.606 64.9278 31.4286C65.0531 31.0939 65.0577 31.0972 65.2516 31.659C65.3418 31.9204 65.3392 31.9254 65.2026 31.7511C65.0598 31.569 65.0565 31.5689 64.9255 31.7457C64.8526 31.8441 64.7961 31.8856 64.8 31.8379Z" fill="#2E381E" stroke="#2E381E" stroke-width="0.0921659"/>
<path d="M22.5986 31.8387C22.5783 30.878 22.6341 30.7771 23.1755 30.7972L23.5488 30.811L23.134 30.8663L22.7193 30.9216L22.6677 31.7972L22.6163 32.6728L22.5986 31.8387Z" fill="#E8B137" stroke="#E8B137" stroke-width="0.0921659"/>
<path d="M49.1888 32.0046C49.3186 31.6117 49.4559 31.2559 49.4938 31.2139C49.5489 31.153 49.8117 31.8381 50.0271 32.6037C50.0504 32.6866 49.9047 32.7189 49.5061 32.7189H48.9526L49.1888 32.0046ZM49.676 32.4193C49.6752 32.3559 49.6369 32.2446 49.5908 32.1718C49.5214 32.0621 49.4821 32.0602 49.3618 32.1601C49.1411 32.3432 49.1846 32.5346 49.4469 32.5346C49.5736 32.5346 49.6767 32.4828 49.676 32.4193Z" fill="#20332E" stroke="#20332E" stroke-width="0.0921659"/>
<path d="M64.8061 32.6368C64.6172 32.5172 64.8454 31.6129 65.0644 31.6129C65.1662 31.6129 65.5302 32.3558 65.5302 32.5637C65.5302 32.6777 65.4506 32.7185 65.2307 32.7175C65.066 32.7168 64.8748 32.6804 64.8061 32.6368Z" fill="#12323C" stroke="#12323C" stroke-width="0.0921659"/>
<path d="M15.6685 32.3886C15.6685 32.2958 16.5246 31.2401 16.5662 31.2816C16.5878 31.3033 16.5136 31.5733 16.4012 31.8817C16.2159 32.3898 16.172 32.4424 15.9326 32.4424C15.7874 32.4424 15.6685 32.4181 15.6685 32.3886Z" fill="#2E381E" stroke="#2E381E" stroke-width="0.0921659"/>
<path d="M34.8742 31.5727C34.8453 31.4976 34.8687 31.2941 34.926 31.1205C34.9833 30.947 35.0182 30.7507 35.0035 30.6844C34.9889 30.6181 35.0495 30.5481 35.1382 30.5286C35.276 30.4985 35.2995 30.5648 35.2995 30.9849C35.2995 31.3784 35.2622 31.4996 35.113 31.5928C34.9584 31.6893 34.9176 31.6859 34.8742 31.5727Z" fill="#003246" stroke="#003246" stroke-width="0.0921659"/>
<path d="M41.9042 24.5921C41.8139 24.4477 41.8004 24.4477 41.6949 24.592C41.6329 24.6769 41.5616 24.7255 41.5365 24.7003C41.5115 24.675 41.477 23.9659 41.4599 23.1244L41.4287 21.5946L43.2259 21.6077C44.2144 21.6149 45.2004 21.6558 45.4171 21.6984L45.811 21.776L45.7858 23.2508L45.7605 24.7256L43.8807 24.736C42.2149 24.7453 41.9897 24.7289 41.9042 24.5921Z" fill="#003246" stroke="#003246" stroke-width="0.0921659"/>
<path d="M41.1982 20.4477C41.1982 20.3643 41.2604 20.2724 41.3364 20.2431C41.4508 20.1993 41.4746 19.9517 41.4746 18.8101C41.4746 17.8293 41.5069 17.4103 41.5863 17.3613C41.6476 17.3233 42.5682 17.2845 43.6319 17.275C45.118 17.2619 45.5937 17.2856 45.6862 17.3781C45.7754 17.4673 45.8064 17.8926 45.8064 19.0257C45.8064 20.4171 45.7921 20.5534 45.6452 20.5576C45.5564 20.5602 44.5196 20.5705 43.3411 20.5807C41.4076 20.5972 41.1983 20.5843 41.1982 20.4477Z" fill="#003246" stroke="#003246" stroke-width="0.0921659"/>
<path d="M46.5489 23.3903L46.5541 21.8894L46.8024 21.7025C47.0384 21.5248 47.1443 21.518 48.9402 21.5642L50.8296 21.6129L50.8239 21.8664C50.8207 22.0058 50.8103 22.7005 50.8008 23.4101L50.7835 24.7005H48.8419C47.6798 24.7005 46.8288 24.7387 46.7221 24.7959C46.5491 24.8884 46.544 24.8465 46.5489 23.3903ZM47.4687 22.0699C47.5618 21.9577 47.5629 21.9043 47.4738 21.8164C47.3854 21.7293 47.333 21.7431 47.2319 21.8799C47.0191 22.1682 47.2401 22.3455 47.4687 22.0699Z" fill="#003246" stroke="#003246" stroke-width="0.0921659"/>
<path d="M51.0405 23.2259L51.0672 21.3825H48.9973C47.8589 21.3825 46.8679 21.3597 46.7495 20.8295H48.9047C50.0901 20.8295 51.0598 20.7965 51.0598 20.7561C51.0598 20.7158 51.2569 20.7054 51.4976 20.7331L51.9354 20.7834L51.9601 22.9263L51.9849 25.0691L51.4993 25.0692L51.0138 25.0693L51.0405 23.2259Z" fill="#FEAE01" stroke="#FEAE01" stroke-width="0.0921659"/>
<path d="M51.1216 20.215C51.0878 20.1812 51.0602 19.4761 51.0602 18.6482V17.1429L48.9634 17.1415C47.8101 17.1407 46.8124 17.1057 46.7463 17.0638C46.6639 17.0115 46.6349 16.8162 46.6542 16.4431L46.6823 15.8986H49.309H51.9357L51.9606 17.9723C51.983 19.8403 51.9698 20.0573 51.8278 20.1612C51.6598 20.2841 51.2238 20.3172 51.1216 20.215Z" fill="#FEAE01" stroke="#FEAE01" stroke-width="0.0921659"/>
<path d="M40.4609 22.9548C40.4609 21.7918 40.492 20.8252 40.5301 20.8065C40.5681 20.7877 41.7708 20.7896 43.2029 20.8105C43.2029 20.8105 45.8066 20.8486 45.8066 21.3825H43.5024H41.1983V23.129C41.1983 24.6952 41.2149 24.8854 41.3596 24.9696C41.4828 25.0414 41.3959 25.0642 40.9909 25.0664L40.4609 25.0691V22.9548Z" fill="#FEAE01" stroke="#FEAE01" stroke-width="0.0921659"/>
<path d="M41.2416 24.8973C41.2178 24.8736 41.1982 24.0729 41.1982 23.1183V21.3825H43.5024C45.7925 21.3825 45.8065 21.3837 45.8065 21.579C45.8065 21.7608 45.7773 21.7697 45.4148 21.6982C45.1993 21.6557 44.2144 21.6149 43.2259 21.6077L41.4287 21.5946L41.4598 23.1244C41.477 23.9659 41.5129 24.6751 41.8864 24.5736C41.9676 24.6846 42.3284 24.7102 43.8959 24.7164C45.243 24.7218 45.8064 24.7544 45.8062 24.8274C45.8059 24.9009 45.1522 24.9323 43.5452 24.9358C42.302 24.9384 41.2653 24.9211 41.2416 24.8973Z" fill="#12323C" stroke="#12323C" stroke-width="0.0921659"/>
<path d="M41.2485 20.7437C41.2193 20.6965 41.2368 20.6323 41.2875 20.6009C41.3382 20.5696 42.3758 20.5511 43.5932 20.5597C45.4047 20.5726 45.8067 20.5985 45.8067 20.7025C45.8067 20.8069 45.4064 20.8295 43.5541 20.8295C42.2632 20.8295 41.2789 20.7928 41.2485 20.7437Z" fill="#12323C" stroke="#12323C" stroke-width="0.0921659"/>
<path d="M40.8468 16.7512L40.8757 16.4516L43.0738 16.4055C45.1385 16.3622 45.2775 16.3698 45.3624 16.5287C45.4122 16.6218 45.4373 16.7134 45.4184 16.7323C45.3995 16.7512 44.4653 16.7724 43.3424 16.7795C41.7723 16.7893 41.2624 16.8216 41.1344 16.9186C40.8779 17.1131 40.8154 17.0767 40.8468 16.7512Z" fill="#FFAD02" stroke="#FFAD02" stroke-width="0.0921659"/>
<path d="M40.4823 18.0415L40.507 15.8986L43.1568 15.8742L45.8066 15.8497L45.8066 16.4733L45.8067 17.0968L43.7099 17.0699C42.5566 17.0551 41.5196 17.0663 41.4056 17.0947C41.201 17.1456 41.1983 17.1668 41.1983 18.6653V20.1843H40.8279H40.4575L40.4823 18.0415ZM41.1344 16.9186C41.2624 16.8216 41.7723 16.7893 43.3424 16.7794C44.4653 16.7724 45.3995 16.7512 45.4184 16.7323C45.4373 16.7134 45.4122 16.6218 45.3624 16.5287C45.2775 16.3698 45.1385 16.3622 43.0738 16.4055L40.8757 16.4516L40.8468 16.7512C40.8154 17.0767 40.8779 17.1131 41.1344 16.9186Z" fill="#FEAE01" stroke="#FEAE01" stroke-width="0.0921659"/>
<path d="M47.1514 22.1334C47.1246 22.0901 47.161 21.9761 47.2319 21.8799C47.333 21.743 47.3855 21.7293 47.4739 21.8164C47.5629 21.9042 47.5619 21.9577 47.4688 22.0699C47.337 22.2287 47.2242 22.2512 47.1514 22.1334Z" fill="#12323C" stroke="#12323C" stroke-width="0.0921659"/>
<path d="M42.258 25.0691C42.2208 25.0089 42.8118 24.977 43.9631 24.977C45.1143 24.977 45.7054 25.0089 45.6681 25.0691C45.6336 25.125 44.9624 25.1613 43.9631 25.1613C42.9637 25.1613 42.2926 25.125 42.258 25.0691Z" fill="#D7D6B8" stroke="#D7D6B8" stroke-width="0.0921659"/>
<path d="M46.6766 24.8449C46.8265 24.7239 47.1741 24.7005 48.8195 24.7005H50.7834L50.8008 23.4101C50.8102 22.7005 50.8207 22.0058 50.8238 21.8664L50.8295 21.6129L48.9401 21.5623C47.2101 21.516 47.0347 21.5257 46.7512 21.3244C46.8652 21.355 47.8814 21.3805 49.0092 21.3812L51.0599 21.3825L51.0585 23.0184C51.0578 23.9183 51.0254 24.7043 50.9866 24.7654C50.9365 24.8441 50.2747 24.8926 48.7069 24.9327C46.6922 24.9842 46.5135 24.9766 46.6766 24.8449Z" fill="#12323C" stroke="#12323C" stroke-width="0.0921659"/>
<path d="M46.5439 20.7428C46.5439 20.5599 46.7974 20.5377 48.8287 20.5423L50.9218 20.547L50.8917 19.0062C50.8751 18.1587 50.8248 17.4276 50.7799 17.3813C50.735 17.335 49.7765 17.291 48.6499 17.2835C47.0285 17.2727 46.5931 17.2442 46.5604 17.1464C46.5304 17.0563 46.5789 17.0387 46.739 17.0816C46.8598 17.1139 47.8815 17.1408 49.0094 17.1416L51.0601 17.1429V18.9862V20.8295H48.802C47.4525 20.8295 46.5439 20.7946 46.5439 20.7428Z" fill="#12323C" stroke="#12323C" stroke-width="0.0921659"/>
<path d="M41.1982 18.7272C41.1982 17.3854 41.2191 17.1547 41.344 17.1066C41.4242 17.0759 42.4417 17.0507 43.605 17.0507C45.4264 17.0507 45.7277 17.0704 45.7747 17.1929C45.8409 17.3653 45.7303 17.5012 45.6403 17.3583C45.5591 17.2295 41.6982 17.2512 41.5683 17.3811C41.5196 17.4298 41.4684 18.0873 41.4543 18.8424C41.4357 19.84 41.3971 20.2257 41.3134 20.2536C41.2243 20.2831 41.1982 19.9379 41.1982 18.7272Z" fill="#20332E" stroke="#20332E" stroke-width="0.0921659"/>
<path d="M46.5439 18.9616V17.2671L48.6217 17.2828C49.7645 17.2913 50.7359 17.336 50.7805 17.3819C50.8251 17.4278 50.8751 18.1587 50.8917 19.0062L50.9218 20.547L48.8287 20.5423C47.6776 20.5397 46.6925 20.5642 46.6398 20.5968C46.5747 20.637 46.5439 20.1113 46.5439 18.9616Z" fill="#003246" stroke="#003246" stroke-width="0.0921659"/>
</svg>