<svg width="1481" height="234" viewBox="0 0 1481 234" fill="none" xmlns="http://www.w3.org/2000/svg">
<path d="M-30.0191 233.011H1508.44V52.3287H1511.01V48.3793H1466.98V36.1364H1462.63V48.3793H1458.29V39.2959H1450.78V35.149H1448.41V39.2959H1444.86V35.149H1442.49V39.2959H1438.34V48.3793H1434.2V52.3287H1436.76V93.9941H1415.04V90.6372H1411.09V93.9941H1404.97V20.1416H1408.33V17.377H1364.69V13.8227H1358.17V17.377H1352.84V5.33156H1340.99V17.377H1332.3V20.1416H1335.66V60.6222H1309.99V55.0932H1295.97V60.6222H1291.23V80.5664H1286.1V73.2601H1278.59V69.1133H1276.22V73.2601H1272.67V69.1133H1270.3V73.2601H1266.15V80.5664H1243.84V63.5842H1235.15V17.377H1223.1V14.2176H1217.18V17.377H1213.03V11.2556H1200.4V17.377H1195.66V80.5664H1188.15V82.936H1190.32V113.148H1172.36V108.804H1168.21V113.148H1164.46V28.8301H1150.44V25.6707H1137.21V28.8301H1133.45V14.2176H1135.43V10.6632H1114.7V14.2176H1116.67V28.8301H1107.59V48.1819H1098.7V35.9389H1094.36V48.1819H1090.01V39.0984H1082.51V34.9516H1080.14V39.0984H1076.58V34.9516H1074.21V39.0984H1070.07V48.1819H1030.97V52.1312H1033.54V93.7967H1023.47V90.2422H1005.1V93.7967H1001.74V135.857H993.056V104.262H982.195V100.708H972.914V104.262H968.57V97.746H969.952V95.3764H955.34V97.746H956.722V104.262H952.772V17.9694H955.34V13.4277H928.089V1.18475H923.745V13.4277H919.401V4.34423H911.897V0.197418H909.527V4.34423H905.973V0.197418H903.603V4.34423H899.456V13.4277H895.31V17.9694H897.877V60.2273H872.206V54.6982H858.186V60.2273H853.447V100.708H834.885V87.6752H826.196V52.3287H814.151V49.959H808.227V52.3287H804.08V47.7869H791.442V52.3287H786.703V100.708H779.199V102.683H781.371V106.04H768.339V103.078H769.326V101.695H759.058V103.078H760.045V106.04H755.503V45.4173H741.483V43.0477H728.253V45.4173H724.501V34.1617H726.476V31.5947H705.742V34.1617H707.716V45.4173H698.633V77.2094H684.613V74.05H671.382V77.2094H667.631V71.088H669.605V67.5336H648.871V71.088H650.846V77.2094H641.762V52.1312H644.527V48.1819H599.11V39.0984H579.363V48.1819H552.508V35.9389H548.163V48.1819H543.819V39.0984H536.315V34.9516H533.946V39.0984H530.391V34.9516H528.022V39.0984H523.875V48.1819H519.728V52.1312H522.295V93.7967H500.574V90.4397H496.624V93.7967H490.503V19.9441H493.86V17.1796H450.22V13.6252H443.703V17.1796H438.372V5.13409H426.524V17.1796H417.835V19.9441H421.192V60.4248H395.522V54.8957H381.501V60.4248H376.762V80.3689H371.628V73.0627H364.124V68.9159H361.755V73.0627H358.2V68.9159H355.831V73.0627H351.684V80.3689H329.37V63.3868H320.682V17.1796H308.636V14.0201H302.712V17.1796H298.565V11.0581H285.928V17.1796H281.188V80.3689H273.685V82.7385H275.857V112.951H257.887V108.607H253.74V112.951H249.989V28.6327H235.968V25.4732H222.738V28.6327H218.986V14.0201H220.961V10.4657H200.227V14.0201H202.202V28.6327H193.118V47.9844H184.232V35.7414H179.888V47.9844H175.544V38.9009H168.04V34.7541H165.67V38.9009H162.116V34.7541H159.746V38.9009H155.6V47.9844H116.501V51.9337H119.068V93.5992H108.997V90.0448H90.633V93.5992H87.2761V135.66H78.5875V104.065H67.7269V100.511H58.4459V104.065H54.1017V97.5485H55.4839V95.1789H40.8714V97.5485H42.2537V104.065H38.3043V17.772H40.8714V13.2302H13.621V0.987333H9.27674V13.2302H4.93247V4.14675H-0.00419617V0H-2.3738V4.14675H-5.9282V0H-8.2978V4.14675H-12.4446V13.2302H-16.5914V17.772H-14.0243V60.0299H-30.4141V232.418L-30.0191 233.011ZM1487.91 149.482H1497.78V159.751H1487.91V149.482ZM1487.91 127.958H1497.78V138.227H1487.91V127.958ZM1487.91 106.435H1497.78V116.703H1487.91V106.435ZM1487.91 85.1081H1497.78V95.3764H1487.91V85.1081ZM1487.91 63.5842H1497.78V73.8525H1487.91V63.5842ZM1466.98 149.482H1476.85V159.751H1466.98V149.482ZM1466.98 127.958H1476.85V138.227H1466.98V127.958ZM1466.98 106.435H1476.85V116.703H1466.98V106.435ZM1466.98 85.1081H1476.85V95.3764H1466.98V85.1081ZM1466.98 63.5842H1476.85V73.8525H1466.98V63.5842ZM1446.04 149.482H1455.92V159.751H1446.04V149.482ZM1446.04 127.958H1455.92V138.227H1446.04V127.958ZM1446.04 106.435H1455.92V116.703H1446.04V106.435ZM1446.04 85.1081H1455.92V95.3764H1446.04V85.1081ZM1446.04 63.5842H1455.92V73.8525H1446.04V63.5842ZM1426.89 127.169H1430.84V143.756H1426.89V127.169ZM1426.89 100.708H1430.84V117.295H1426.89V100.708ZM1419.19 127.169H1423.14V143.756H1419.19V127.169ZM1419.19 100.708H1423.14V117.295H1419.19V100.708ZM1411.49 127.169H1415.44V143.756H1411.49V127.169ZM1411.49 100.708H1415.44V117.295H1411.49V100.708ZM1392.73 139.806H1395.89V147.705H1392.73V139.806ZM1392.73 124.601H1395.89V132.5H1392.73V124.601ZM1392.73 109.199H1395.89V117.098H1392.73V109.199ZM1392.73 93.9941H1395.89V101.893H1392.73V93.9941ZM1392.73 78.7892H1395.89V86.6879H1392.73V78.7892ZM1392.73 63.5842H1395.89V71.4829H1392.73V63.5842ZM1392.73 48.3793H1395.89V56.278H1392.73V48.3793ZM1392.73 33.1744H1395.89V41.073H1392.73V33.1744ZM1387 139.806H1390.16V147.705H1387V139.806ZM1387 124.601H1390.16V132.5H1387V124.601ZM1387 109.199H1390.16V117.098H1387V109.199ZM1387 93.9941H1390.16V101.893H1387V93.9941ZM1387 78.7892H1390.16V86.6879H1387V78.7892ZM1387 63.5842H1390.16V71.4829H1387V63.5842ZM1387 48.3793H1390.16V56.278H1387V48.3793ZM1387 33.1744H1390.16V41.073H1387V33.1744ZM1371.8 139.806H1374.96V147.705H1371.8V139.806ZM1371.8 124.601H1374.96V132.5H1371.8V124.601ZM1371.8 109.199H1374.96V117.098H1371.8V109.199ZM1371.8 93.9941H1374.96V101.893H1371.8V93.9941ZM1371.8 78.7892H1374.96V86.6879H1371.8V78.7892ZM1371.8 63.5842H1374.96V71.4829H1371.8V63.5842ZM1371.8 48.3793H1374.96V56.278H1371.8V48.3793ZM1371.8 33.1744H1374.96V41.073H1371.8V33.1744ZM1366.27 139.806H1369.43V147.705H1366.27V139.806ZM1366.27 124.601H1369.43V132.5H1366.27V124.601ZM1366.27 109.199H1369.43V117.098H1366.27V109.199ZM1366.27 93.9941H1369.43V101.893H1366.27V93.9941ZM1366.27 78.7892H1369.43V86.6879H1366.27V78.7892ZM1366.27 63.5842H1369.43V71.4829H1366.27V63.5842ZM1366.27 48.3793H1369.43V56.278H1366.27V48.3793ZM1366.27 33.1744H1369.43V41.073H1366.27V33.1744ZM1351.06 139.806H1354.22V147.705H1351.06V139.806ZM1351.06 124.601H1354.22V132.5H1351.06V124.601ZM1351.06 109.199H1354.22V117.098H1351.06V109.199ZM1351.06 93.9941H1354.22V101.893H1351.06V93.9941ZM1351.06 78.7892H1354.22V86.6879H1351.06V78.7892ZM1351.06 63.5842H1354.22V71.4829H1351.06V63.5842ZM1351.06 48.3793H1354.22V56.278H1351.06V48.3793ZM1351.06 33.1744H1354.22V41.073H1351.06V33.1744ZM1345.34 139.806H1348.5V147.705H1345.34V139.806ZM1345.34 124.601H1348.5V132.5H1345.34V124.601ZM1345.34 109.199H1348.5V117.098H1345.34V109.199ZM1345.34 93.9941H1348.5V101.893H1345.34V93.9941ZM1345.34 78.7892H1348.5V86.6879H1345.34V78.7892ZM1345.34 63.5842H1348.5V71.4829H1345.34V63.5842ZM1345.34 48.3793H1348.5V56.278H1345.34V48.3793ZM1345.34 33.1744H1348.5V41.073H1345.34V33.1744ZM1299.33 149.877H1305.05V155.801H1299.33V149.877ZM1299.33 138.424H1305.05V144.348H1299.33V138.424ZM1299.33 126.971H1305.05V132.895H1299.33V126.971ZM1299.33 115.321H1305.05V121.245H1299.33V115.321ZM1299.33 103.867H1305.05V109.791H1299.33V103.867ZM1299.33 92.2169H1305.05V98.1409H1299.33V92.2169ZM1299.33 80.7639H1305.05V86.6879H1299.33V80.7639ZM1299.33 69.1133H1305.05V75.0373H1299.33V69.1133ZM1241.86 140.991H1246.8V148.89H1241.86V140.991ZM1241.86 125.786H1246.8V133.685H1241.86V125.786ZM1241.86 110.581H1246.8V118.48H1241.86V110.581ZM1241.86 95.1789H1246.8V103.078H1241.86V95.1789ZM1233.18 140.991H1238.11V148.89H1233.18V140.991ZM1233.18 125.786H1238.11V133.685H1233.18V125.786ZM1233.18 110.581H1238.11V118.48H1233.18V110.581ZM1233.18 95.1789H1238.11V103.078H1233.18V95.1789ZM1227.25 59.4374H1230.81V69.1133H1227.25V59.4374ZM1227.25 41.073H1230.81V50.7489H1227.25V41.073ZM1227.25 22.5112H1230.81V32.187H1227.25V22.5112ZM1209.68 140.991H1214.61V148.89H1209.68V140.991ZM1209.68 125.786H1214.61V133.685H1209.68V125.786ZM1209.68 110.581H1214.61V118.48H1209.68V110.581ZM1209.68 95.1789H1214.61V103.078H1209.68V95.1789ZM1200.99 140.991H1205.92V148.89H1200.99V140.991ZM1200.99 125.786H1205.92V133.685H1200.99V125.786ZM1200.99 110.581H1205.92V118.48H1200.99V110.581ZM1200.99 95.1789H1205.92V103.078H1200.99V95.1789ZM1139.58 100.116H1145.3V107.224H1139.58V100.116ZM1139.58 80.5664H1145.3V87.6752H1139.58V80.5664ZM1139.58 60.8197H1145.3V67.9285H1139.58V60.8197ZM1139.58 41.2705H1145.3V48.3793H1139.58V41.2705ZM1128.32 100.116H1134.05V107.224H1128.32V100.116ZM1128.32 80.5664H1134.05V87.6752H1128.32V80.5664ZM1128.32 60.8197H1134.05V67.9285H1128.32V60.8197ZM1128.32 41.2705H1134.05V48.3793H1128.32V41.2705ZM1117.26 100.116H1122.99V107.224H1117.26V100.116ZM1117.26 80.5664H1122.99V87.6752H1117.26V80.5664ZM1117.26 60.8197H1122.99V67.9285H1117.26V60.8197ZM1117.26 41.2705H1122.99V48.3793H1117.26V41.2705ZM1090.41 135.857H1094.95V144.348H1090.41V135.857ZM1090.41 117.69H1094.95V126.181H1090.41V117.69ZM1090.41 99.7207H1094.95V108.212H1090.41V99.7207ZM1090.41 81.5537H1094.95V90.0448H1090.41V81.5537ZM1090.41 63.5842H1094.95V72.0753H1090.41V63.5842ZM1080.93 135.857H1085.47V144.348H1080.93V135.857ZM1080.93 117.69H1085.47V126.181H1080.93V117.69ZM1080.93 99.7207H1085.47V108.212H1080.93V99.7207ZM1080.93 81.5537H1085.47V90.0448H1080.93V81.5537ZM1080.93 63.5842H1085.47V72.0753H1080.93V63.5842ZM1071.25 135.857H1075.79V144.348H1071.25V135.857ZM1071.25 117.69H1075.79V126.181H1071.25V117.69ZM1071.25 99.7207H1075.79V108.212H1071.25V99.7207ZM1071.25 81.5537H1075.79V90.0448H1071.25V81.5537ZM1071.25 63.5842H1075.79V72.0753H1071.25V63.5842ZM1024.26 116.9H1028.2V127.169H1024.26V116.9ZM1024.26 100.708H1028.2V110.976H1024.26V100.708ZM1016.36 116.9H1020.31V127.169H1016.36V116.9ZM1016.36 100.708H1020.31V110.976H1016.36V100.708ZM1008.66 116.9H1012.6V127.169H1008.66V116.9ZM1008.66 100.708H1012.6V110.976H1008.66V100.708ZM983.38 131.118H986.934V140.794H983.38V131.118ZM983.38 112.753H986.934V122.429H983.38V112.753ZM925.72 134.277H928.879V142.176H925.72V134.277ZM925.72 119.072H928.879V126.971H925.72V119.072ZM925.72 103.867H928.879V111.766H925.72V103.867ZM925.72 88.6625H928.879V96.5612H925.72V88.6625ZM925.72 73.4576H928.879V81.3562H925.72V73.4576ZM925.72 58.2527H928.879V66.1513H925.72V58.2527ZM925.72 42.8502H928.879V50.7489H925.72V42.8502ZM925.72 27.6453H928.879V35.544H925.72V27.6453ZM920.19 134.277H923.35V142.176H920.19V134.277ZM920.19 119.072H923.35V126.971H920.19V119.072ZM920.19 103.867H923.35V111.766H920.19V103.867ZM920.19 88.6625H923.35V96.5612H920.19V88.6625ZM920.19 73.4576H923.35V81.3562H920.19V73.4576ZM920.19 58.2527H923.35V66.1513H920.19V58.2527ZM920.19 42.8502H923.35V50.7489H920.19V42.8502ZM920.19 27.6453H923.35V35.544H920.19V27.6453ZM911.107 134.277H914.266V142.176H911.107V134.277ZM911.107 119.072H914.266V126.971H911.107V119.072ZM911.107 103.867H914.266V111.766H911.107V103.867ZM911.107 88.6625H914.266V96.5612H911.107V88.6625ZM911.107 73.4576H914.266V81.3562H911.107V73.4576ZM911.107 58.2527H914.266V66.1513H911.107V58.2527ZM911.107 42.8502H914.266V50.7489H911.107V42.8502ZM911.107 27.6453H914.266V35.544H911.107V27.6453ZM905.38 134.277H908.54V142.176H905.38V134.277ZM905.38 119.072H908.54V126.971H905.38V119.072ZM905.38 103.867H908.54V111.766H905.38V103.867ZM905.38 88.6625H908.54V96.5612H905.38V88.6625ZM905.38 73.4576H908.54V81.3562H905.38V73.4576ZM905.38 58.2527H908.54V66.1513H905.38V58.2527ZM905.38 42.8502H908.54V50.7489H905.38V42.8502ZM905.38 27.6453H908.54V35.544H905.38V27.6453ZM862.53 149.087H870.626V155.801H862.53V149.087ZM862.53 135.66H870.626V142.571H862.53V135.66ZM862.53 122.429H870.626V129.143H862.53V122.429ZM862.53 109.199H870.626V116.11H862.53V109.199ZM862.53 95.7713H870.626V102.683H862.53V95.7713ZM862.53 82.541H870.626V89.4524H862.53V82.541ZM862.53 69.1133H870.626V76.0247H862.53V69.1133ZM833.503 147.31H838.439V153.432H833.503V147.31ZM833.503 135.66H838.439V141.781H833.503V135.66ZM833.503 124.009H838.439V130.131H833.503V124.009ZM833.503 112.359H838.439V118.48H833.503V112.359ZM824.814 147.31H829.751V153.432H824.814V147.31ZM824.814 135.66H829.751V141.781H824.814V135.66ZM824.814 124.009H829.751V130.131H824.814V124.009ZM824.814 112.359H829.751V118.48H824.814V112.359ZM819.088 84.9107H822.642V92.4144H819.088V84.9107ZM819.088 70.693H822.642V78.1968H819.088V70.693ZM819.088 56.6729H822.642V64.1767H819.088V56.6729ZM801.513 147.31H806.45V153.432H801.513V147.31ZM801.513 135.66H806.45V141.781H801.513V135.66ZM801.513 124.009H806.45V130.131H801.513V124.009ZM801.513 112.359H806.45V118.48H801.513V112.359ZM792.824 147.31H797.761V153.432H792.824V147.31ZM792.824 135.66H797.761V141.781H792.824V135.66ZM792.824 124.009H797.761V130.131H792.824V124.009ZM792.824 112.359H797.761V118.48H792.824V112.359ZM761.427 140.991H769.523V147.903H761.427V140.991ZM761.427 127.761H769.523V134.475H761.427V127.761ZM761.427 114.531H769.523V121.245H761.427V114.531ZM731.412 100.116H737.139V105.645H731.412V100.116ZM731.412 85.1081H737.139V90.6372H731.412V85.1081ZM731.412 70.1007H737.139V75.6297H731.412V70.1007ZM731.412 55.0932H737.139V60.6222H731.412V55.0932ZM720.157 100.116H725.883V105.645H720.157V100.116ZM720.157 85.1081H725.883V90.6372H720.157V85.1081ZM720.157 70.1007H725.883V75.6297H720.157V70.1007ZM720.157 55.0932H725.883V60.6222H720.157V55.0932ZM708.901 100.116H714.628V105.645H708.901V100.116ZM708.901 85.1081H714.628V90.6372H708.901V85.1081ZM708.901 70.1007H714.628V75.6297H708.901V70.1007ZM708.901 55.0932H714.628V60.6222H708.901V55.0932ZM674.739 148.495H680.466V155.604H674.739V148.495ZM674.739 128.946H680.466V136.055H674.739V128.946ZM674.739 109.199H680.466V116.308H674.739V109.199ZM674.739 89.6499H680.466V96.7587H674.739V89.6499ZM663.484 148.495H669.21V155.604H663.484V148.495ZM663.484 128.946H669.21V136.055H663.484V128.946ZM663.484 109.199H669.21V116.308H663.484V109.199ZM663.484 89.6499H669.21V96.7587H663.484V89.6499ZM652.426 148.495H658.152V155.604H652.426V148.495ZM652.426 128.946H658.152V136.055H652.426V128.946ZM652.426 109.199H658.152V116.308H652.426V109.199ZM652.426 89.6499H658.152V96.7587H652.426V89.6499ZM623.003 149.482H632.876V159.751H623.003V149.482ZM623.003 127.958H632.876V138.227H623.003V127.958ZM623.003 106.435H632.876V116.703H623.003V106.435ZM623.003 85.1081H632.876V95.3764H623.003V85.1081ZM623.003 63.5842H632.876V73.8525H623.003V63.5842ZM602.072 149.482H611.945V159.751H602.072V149.482ZM602.072 127.958H611.945V138.227H602.072V127.958ZM602.072 106.435H611.945V116.703H602.072V106.435ZM602.072 85.1081H611.945V95.3764H602.072V85.1081ZM602.072 63.5842H611.945V73.8525H602.072V63.5842ZM581.14 149.482H585.287V159.751H581.14V149.482ZM581.14 127.958H585.287V138.227H581.14V127.958ZM581.14 106.435H585.287V116.703H581.14V106.435ZM581.14 85.1081H585.287V95.3764H581.14V85.1081ZM581.14 63.5842H585.287V73.8525H581.14V63.5842ZM554.285 149.482H564.158V159.751H554.285V149.482ZM554.285 127.958H564.158V138.227H554.285V127.958ZM554.285 106.435H564.158V116.703H554.285V106.435ZM554.285 85.1081H564.158V95.3764H554.285V85.1081ZM554.285 63.5842H564.158V73.8525H554.285V63.5842ZM533.353 149.482H543.227V159.751H533.353V149.482ZM533.353 127.958H543.227V138.227H533.353V127.958ZM533.353 106.435H543.227V116.703H533.353V106.435ZM533.353 85.1081H543.227V95.3764H533.353V85.1081ZM533.353 63.5842H543.227V73.8525H533.353V63.5842ZM514.396 127.169H518.346V143.756H514.396V127.169ZM514.396 100.708H518.346V117.295H514.396V100.708ZM506.498 127.169H510.447V143.756H506.498V127.169ZM506.498 100.708H510.447V117.295H506.498V100.708ZM498.797 127.169H502.746V143.756H498.797V127.169ZM498.797 100.708H502.746V117.295H498.797V100.708ZM480.037 139.806H483.197V147.705H480.037V139.806ZM480.037 124.601H483.197V132.5H480.037V124.601ZM480.037 109.199H483.197V117.098H480.037V109.199ZM480.037 93.9941H483.197V101.893H480.037V93.9941ZM480.037 78.7892H483.197V86.6879H480.037V78.7892ZM480.037 63.5842H483.197V71.4829H480.037V63.5842ZM480.037 48.3793H483.197V56.278H480.037V48.3793ZM480.037 33.1744H483.197V41.073H480.037V33.1744ZM474.311 139.806H477.47V147.705H474.311V139.806ZM474.311 124.601H477.47V132.5H474.311V124.601ZM474.311 109.199H477.47V117.098H474.311V109.199ZM474.311 93.9941H477.47V101.893H474.311V93.9941ZM474.311 78.7892H477.47V86.6879H474.311V78.7892ZM474.311 63.5842H477.47V71.4829H474.311V63.5842ZM474.311 48.3793H477.47V56.278H474.311V48.3793ZM474.311 33.1744H477.47V41.073H474.311V33.1744ZM459.106 139.806H462.265V147.705H459.106V139.806ZM459.106 124.601H462.265V132.5H459.106V124.601ZM459.106 109.199H462.265V117.098H459.106V109.199ZM459.106 93.9941H462.265V101.893H459.106V93.9941ZM459.106 78.7892H462.265V86.6879H459.106V78.7892ZM459.106 63.5842H462.265V71.4829H459.106V63.5842ZM459.106 48.3793H462.265V56.278H459.106V48.3793ZM459.106 33.1744H462.265V41.073H459.106V33.1744ZM453.577 139.806H456.736V147.705H453.577V139.806ZM453.577 124.601H456.736V132.5H453.577V124.601ZM453.577 109.199H456.736V117.098H453.577V109.199ZM453.577 93.9941H456.736V101.893H453.577V93.9941ZM453.577 78.7892H456.736V86.6879H453.577V78.7892ZM453.577 63.5842H456.736V71.4829H453.577V63.5842ZM453.577 48.3793H456.736V56.278H453.577V48.3793ZM453.577 33.1744H456.736V41.073H453.577V33.1744ZM438.372 139.806H441.531V147.705H438.372V139.806ZM438.372 124.601H441.531V132.5H438.372V124.601ZM438.372 109.199H441.531V117.098H438.372V109.199ZM438.372 93.9941H441.531V101.893H438.372V93.9941ZM438.372 78.7892H441.531V86.6879H438.372V78.7892ZM438.372 63.5842H441.531V71.4829H438.372V63.5842ZM438.372 48.3793H441.531V56.278H438.372V48.3793ZM438.372 33.1744H441.531V41.073H438.372V33.1744ZM432.645 139.806H435.805V147.705H432.645V139.806ZM432.645 124.601H435.805V132.5H432.645V124.601ZM432.645 109.199H435.805V117.098H432.645V109.199ZM432.645 93.9941H435.805V101.893H432.645V93.9941ZM432.645 78.7892H435.805V86.6879H432.645V78.7892ZM432.645 63.5842H435.805V71.4829H432.645V63.5842ZM432.645 48.3793H435.805V56.278H432.645V48.3793ZM432.645 33.1744H435.805V41.073H432.645V33.1744ZM386.636 149.877H392.362V155.801H386.636V149.877ZM386.636 138.424H392.362V144.348H386.636V138.424ZM386.636 126.971H392.362V132.895H386.636V126.971ZM386.636 115.321H392.362V121.245H386.636V115.321ZM386.636 103.867H392.362V109.791H386.636V103.867ZM386.636 92.2169H392.362V98.1409H386.636V92.2169ZM386.636 80.7639H392.362V86.6879H386.636V80.7639ZM386.636 69.1133H392.362V75.0373H386.636V69.1133ZM329.173 140.991H334.109V148.89H329.173V140.991ZM329.173 125.786H334.109V133.685H329.173V125.786ZM329.173 110.581H334.109V118.48H329.173V110.581ZM329.173 95.1789H334.109V103.078H329.173V95.1789ZM320.484 140.991H325.421V148.89H320.484V140.991ZM320.484 125.786H325.421V133.685H320.484V125.786ZM320.484 110.581H325.421V118.48H320.484V110.581ZM320.484 95.1789H325.421V103.078H320.484V95.1789ZM314.56 59.4374H318.115V69.1133H314.56V59.4374ZM314.56 41.073H318.115V50.7489H314.56V41.073ZM314.56 22.5112H318.115V32.187H314.56V22.5112ZM297.183 140.991H302.12V148.89H297.183V140.991ZM297.183 125.786H302.12V133.685H297.183V125.786ZM297.183 110.581H302.12V118.48H297.183V110.581ZM297.183 95.1789H302.12V103.078H297.183V95.1789ZM288.297 140.991H293.234V148.89H288.297V140.991ZM288.297 125.786H293.234V133.685H288.297V125.786ZM288.297 110.581H293.234V118.48H288.297V110.581ZM288.297 95.1789H293.234V103.078H288.297V95.1789ZM226.885 100.116H232.612V107.224H226.885V100.116ZM226.885 80.5664H232.612V87.6752H226.885V80.5664ZM226.885 60.8197H232.612V67.9285H226.885V60.8197ZM226.885 41.2705H232.612V48.3793H226.885V41.2705ZM215.827 100.116H221.553V107.224H215.827V100.116ZM215.827 80.5664H221.553V87.6752H215.827V80.5664ZM215.827 60.8197H221.553V67.9285H215.827V60.8197ZM215.827 41.2705H221.553V48.3793H215.827V41.2705ZM204.571 100.116H210.298V107.224H204.571V100.116ZM204.571 80.5664H210.298V87.6752H204.571V80.5664ZM204.571 60.8197H210.298V67.9285H204.571V60.8197ZM204.571 41.2705H210.298V48.3793H204.571V41.2705ZM177.913 135.857H182.455V144.348H177.913V135.857ZM177.913 117.69H182.455V126.181H177.913V117.69ZM177.913 99.7207H182.455V108.212H177.913V99.7207ZM177.913 81.5537H182.455V90.0448H177.913V81.5537ZM177.913 63.5842H182.455V72.0753H177.913V63.5842ZM168.237 135.857H172.779V144.348H168.237V135.857ZM168.237 117.69H172.779V126.181H168.237V117.69ZM168.237 99.7207H172.779V108.212H168.237V99.7207ZM168.237 81.5537H172.779V90.0448H168.237V81.5537ZM168.237 63.5842H172.779V72.0753H168.237V63.5842ZM158.562 135.857H163.103V144.348H158.562V135.857ZM158.562 117.69H163.103V126.181H158.562V117.69ZM158.562 99.7207H163.103V108.212H158.562V99.7207ZM158.562 81.5537H163.103V90.0448H158.562V81.5537ZM158.562 63.5842H163.103V72.0753H158.562V63.5842ZM111.564 116.9H115.514V127.169H111.564V116.9ZM111.564 100.708H115.514V110.976H111.564V100.708ZM103.666 116.9H107.615V127.169H103.666V116.9ZM103.666 100.708H107.615V110.976H103.666V100.708ZM95.9646 116.9H99.9139V127.169H95.9646V116.9ZM95.9646 100.708H99.9139V110.976H95.9646V100.708ZM70.6889 131.118H74.2433V140.794H70.6889V131.118ZM70.6889 112.753H74.2433V122.429H70.6889V112.753ZM13.2261 134.277H16.3855V142.176H13.2261V134.277ZM13.2261 119.072H16.3855V126.971H13.2261V119.072ZM13.2261 103.867H16.3855V111.766H13.2261V103.867ZM13.2261 88.6625H16.3855V96.5612H13.2261V88.6625ZM13.2261 73.4576H16.3855V81.3562H13.2261V73.4576ZM13.2261 58.2527H16.3855V66.1513H13.2261V58.2527ZM13.2261 42.8502H16.3855V50.7489H13.2261V42.8502ZM13.2261 27.6453H16.3855V35.544H13.2261V27.6453ZM7.49953 134.277H10.659V142.176H7.49953V134.277ZM7.49953 119.072H10.659V126.971H7.49953V119.072ZM7.49953 103.867H10.659V111.766H7.49953V103.867ZM7.49953 88.6625H10.659V96.5612H7.49953V88.6625ZM7.49953 73.4576H10.659V81.3562H7.49953V73.4576ZM7.49953 58.2527H10.659V66.1513H7.49953V58.2527ZM7.49953 42.8502H10.659V50.7489H7.49953V42.8502ZM7.49953 27.6453H10.659V35.544H7.49953V27.6453ZM-1.58393 134.277H1.57554V142.176H-1.58393V134.277ZM-1.58393 119.072H1.57554V126.971H-1.58393V119.072ZM-1.58393 103.867H1.57554V111.766H-1.58393V103.867ZM-1.58393 88.6625H1.57554V96.5612H-1.58393V88.6625ZM-1.58393 73.4576H1.57554V81.3562H-1.58393V73.4576ZM-1.58393 58.2527H1.57554V66.1513H-1.58393V58.2527ZM-1.58393 42.8502H1.57554V50.7489H-1.58393V42.8502ZM-1.58393 27.6453H1.57554V35.544H-1.58393V27.6453ZM-7.31046 134.277H-4.151V142.176H-7.31046V134.277ZM-7.31046 119.072H-4.151V126.971H-7.31046V119.072ZM-7.31046 103.867H-4.151V111.766H-7.31046V103.867ZM-7.31046 88.6625H-4.151V96.5612H-7.31046V88.6625ZM-7.31046 73.4576H-4.151V81.3562H-7.31046V73.4576ZM-7.31046 58.2527H-4.151V66.1513H-7.31046V58.2527ZM-7.31046 42.8502H-4.151V50.7489H-7.31046V42.8502ZM-7.31046 27.6453H-4.151V35.544H-7.31046V27.6453Z" fill="#D3D3D3"/>
</svg>
