<svg width="1481" height="276" viewBox="0 0 1481 276" fill="none" xmlns="http://www.w3.org/2000/svg">
<path d="M-34.168 78.5917V85.1081H-30.0212V275.466H802.893V274.874H883.46V275.466H1511.01V85.1081H1515.16V78.5917H1496.4V63.7817H1464.01V78.5917H1389.37V85.1081H1393.91V126.181H1379.1V116.308H1382.26V110.581H1348.3V116.308H1351.46V126.181H1345.33V121.047H1323.61V126.181H1300.71V74.05H1285.9V55.4881H1289.06V51.1439H1255.09V55.4881H1258.25V74.05H1252.13V70.1007H1230.41V74.05H1207.5V173.771H1200.2V169.031H1201.78V166.859H1184.79V169.031H1186.37V173.771H1164.85V168.439H1168.6V165.28H1156.16V85.7005H1148.26V77.9993H1127.33V85.7005H1120.42V81.7512H1110.74V85.7005H1091V143.953H1076.58V165.28H1046.17V98.7333H1038.27V89.6499H1015.17V98.7333H972.912V29.0276H977.059V21.5239H970.345V6.71385H963.631V0H959.879V6.71385H954.153V0H950.401V6.71385H938.158V21.5239H931.049V1.38229H923.94V21.5239H879.115V29.0276H883.262V171.006H876.746V160.343H879.115V156.394H855.024V160.343H857.394V171.006H850.285V165.28H834.883V171.006H817.111V222.94H802.696V153.827H797.167V147.903H766.954V153.827H750.367V85.1081H754.514V78.5917H689.942V63.7817H683.228V57.0679H679.477V63.7817H673.75V57.0679H669.998V63.7817H657.755V78.5917H650.646V58.4501H643.538V78.5917H628.728V46.6021H613.918V22.5112H617.077V16.7847H583.113V22.5112H586.272V46.6021H580.151V41.468H558.429V46.6021H535.523V185.421H529.402V178.312H522.491V185.421H492.871V135.66H496.622V131.513H484.182V27.6453H476.283V17.772H455.352V27.6453H448.441V22.5112H438.765V27.6453H419.018V103.67H404.603V131.71H367.874V119.862H361.16V113.148H357.408V119.862H351.682V113.148H347.93V119.862H335.687V131.71H326.999V98.9308H319.1V89.8473H295.996V98.9308H253.738V32.3845H259.267V27.8428H244.852V7.89867H225.303V27.8428H216.417V22.1163H205.754V27.8428H134.074V32.3845H139.603V154.024H129.334V148.692H122.818V154.024H87.0766V85.3056H91.2234V78.7892H84.5095V63.9792H77.7956V57.2653H74.0438V63.9792H68.3172V57.2653H64.5654V63.9792H52.3224V78.7892H45.2136V58.6476H38.1048V78.7892H-34.168V78.5917ZM1480.2 244.859H1496.59V261.643H1480.2V244.859ZM1480.2 209.71H1496.59V226.494H1480.2V209.71ZM1480.2 174.363H1496.59V191.148H1480.2V174.363ZM1480.2 139.017H1496.59V155.801H1480.2V139.017ZM1480.2 103.67H1496.59V120.455H1480.2V103.67ZM1445.65 244.859H1462.04V261.643H1445.65V244.859ZM1445.65 209.71H1462.04V226.494H1445.65V209.71ZM1445.65 174.363H1462.04V191.148H1445.65V174.363ZM1445.65 139.017H1462.04V155.801H1445.65V139.017ZM1445.65 103.67H1462.04V120.455H1445.65V103.67ZM1411.09 244.859H1427.48V261.643H1411.09V244.859ZM1411.09 209.71H1427.48V226.494H1411.09V209.71ZM1411.09 174.363H1427.48V191.148H1411.09V174.363ZM1411.09 139.017H1427.48V155.801H1411.09V139.017ZM1411.09 103.67H1427.48V120.455H1411.09V103.67ZM1369.82 243.674H1379.1V255.324H1369.82V243.674ZM1369.82 211.289H1379.1V222.94H1369.82V211.289ZM1369.82 178.905H1379.1V190.555H1369.82V178.905ZM1369.82 146.52H1379.1V158.171H1369.82V146.52ZM1351.46 243.674H1360.74V255.324H1351.46V243.674ZM1351.46 211.289H1360.74V222.94H1351.46V211.289ZM1351.46 178.905H1360.74V190.555H1351.46V178.905ZM1351.46 146.52H1360.74V158.171H1351.46V146.52ZM1332.89 243.674H1342.17V255.324H1332.89V243.674ZM1332.89 211.289H1342.17V222.94H1332.89V211.289ZM1332.89 178.905H1342.17V190.555H1332.89V178.905ZM1332.89 146.52H1342.17V158.171H1332.89V146.52ZM1276.62 163.897H1285.9V172.981H1276.62V163.897ZM1276.62 139.214H1285.9V148.297H1276.62V139.214ZM1276.62 114.333H1285.9V123.417H1276.62V114.333ZM1276.62 89.6499H1285.9V98.7333H1276.62V89.6499ZM1258.25 163.897H1267.53V172.981H1258.25V163.897ZM1258.25 139.214H1267.53V148.297H1258.25V139.214ZM1258.25 114.333H1267.53V123.417H1258.25V114.333ZM1258.25 89.6499H1267.53V98.7333H1258.25V89.6499ZM1239.89 163.897H1249.17V172.981H1239.89V163.897ZM1239.89 139.214H1249.17V148.297H1239.89V139.214ZM1239.89 114.333H1249.17V123.417H1239.89V114.333ZM1239.89 89.6499H1249.17V98.7333H1239.89V89.6499ZM1186.37 231.233H1199.8V242.489H1186.37V231.233ZM1186.37 209.315H1199.8V220.57H1186.37V209.315ZM1186.37 187.396H1199.8V198.651H1186.37V187.396ZM1139.97 241.502H1148.06V251.573H1139.97V241.502ZM1139.97 222.347H1148.06V232.418H1139.97V222.347ZM1139.97 202.996H1148.06V213.067H1139.97V202.996ZM1139.97 183.841H1148.06V193.912H1139.97V183.841ZM1125.55 241.502H1133.65V251.573H1125.55V241.502ZM1125.55 222.347H1133.65V232.418H1125.55V222.347ZM1125.55 202.996H1133.65V213.067H1125.55V202.996ZM1125.55 183.841H1133.65V193.912H1125.55V183.841ZM1098.9 138.622H1104.82V150.865H1098.9V138.622ZM1098.9 115.518H1104.82V127.761H1098.9V115.518ZM1098.9 92.217H1104.82V104.46H1098.9V92.217ZM1087.05 241.502H1095.14V251.573H1087.05V241.502ZM1087.05 222.347H1095.14V232.418H1087.05V222.347ZM1087.05 202.996H1095.14V213.067H1087.05V202.996ZM1087.05 183.841H1095.14V193.912H1087.05V183.841ZM1072.83 241.502H1080.93V251.573H1072.83V241.502ZM1072.83 222.347H1080.93V232.418H1072.83V222.347ZM1072.83 202.996H1080.93V213.067H1072.83V202.996ZM1072.83 183.841H1080.93V193.912H1072.83V183.841ZM1019.71 244.464H1033.14V255.719H1019.71V244.464ZM1019.71 222.545H1033.14V233.801H1019.71V222.545ZM1019.71 200.626H1033.14V211.882H1019.71V200.626ZM1019.71 178.707H1033.14V189.963H1019.71V178.707ZM1019.71 156.789H1033.14V168.044H1019.71V156.789ZM1019.71 134.87H1033.14V146.125H1019.71V134.87ZM1019.71 112.951H1033.14V124.207H1019.71V112.951ZM957.312 220.175H962.644V233.208H957.312V220.175ZM957.312 195.097H962.644V208.13H957.312V195.097ZM957.312 170.019H962.644V183.052H957.312V170.019ZM957.312 144.941H962.644V157.973H957.312V144.941ZM957.312 119.862H962.644V132.895H957.312V119.862ZM957.312 94.784H962.644V107.817H957.312V94.784ZM957.312 69.7057H962.644V82.7385H957.312V69.7057ZM957.312 44.6275H962.644V57.6603H957.312V44.6275ZM948.031 220.175H953.363V233.208H948.031V220.175ZM948.031 195.097H953.363V208.13H948.031V195.097ZM948.031 170.019H953.363V183.052H948.031V170.019ZM948.031 144.941H953.363V157.973H948.031V144.941ZM948.031 119.862H953.363V132.895H948.031V119.862ZM948.031 94.784H953.363V107.817H948.031V94.784ZM948.031 69.7057H953.363V82.7385H948.031V69.7057ZM948.031 44.6275H953.363V57.6603H948.031V44.6275ZM933.221 220.175H938.553V233.208H933.221V220.175ZM933.221 195.097H938.553V208.13H933.221V195.097ZM933.221 170.019H938.553V183.052H933.221V170.019ZM933.221 144.941H938.553V157.973H933.221V144.941ZM933.221 119.862H938.553V132.895H933.221V119.862ZM933.221 94.784H938.553V107.817H933.221V94.784ZM933.221 69.7057H938.553V82.7385H933.221V69.7057ZM933.221 44.6275H938.553V57.6603H933.221V44.6275ZM923.743 220.175H929.074V233.208H923.743V220.175ZM923.743 195.097H929.074V208.13H923.743V195.097ZM923.743 170.019H929.074V183.052H923.743V170.019ZM923.743 144.941H929.074V157.973H923.743V144.941ZM923.743 119.862H929.074V132.895H923.743V119.862ZM923.743 94.784H929.074V107.817H923.743V94.784ZM923.743 69.7057H929.074V82.7385H923.743V69.7057ZM923.743 44.6275H929.074V57.6603H923.743V44.6275ZM828.366 215.041H834.29V231.036H828.366V215.041ZM828.366 184.631H834.29V200.626H828.366V184.631ZM786.306 191.543H792.822V208.327H786.306V191.543ZM786.306 164.687H792.822V181.472H786.306V164.687ZM773.471 191.543H779.987V208.327H773.471V191.543ZM773.471 164.687H779.987V181.472H773.471V164.687ZM760.635 191.543H767.152V208.327H760.635V191.543ZM760.635 164.687H767.152V181.472H760.635V164.687ZM682.044 222.545H689.547V236.565H682.044V222.545ZM682.044 192.727H689.547V206.748H682.044V192.727ZM682.044 163.107H689.547V177.128H682.044V163.107ZM682.044 133.29H689.547V147.31H682.044V133.29ZM682.044 103.67H689.547V117.69H682.044V103.67ZM666.246 222.545H673.75V236.565H666.246V222.545ZM666.246 192.727H673.75V206.748H666.246V192.727ZM666.246 163.107H673.75V177.128H666.246V163.107ZM666.246 133.29H673.75V147.31H666.246V133.29ZM666.246 103.67H673.75V117.69H666.246V103.67ZM650.449 222.545H657.953V236.565H650.449V222.545ZM650.449 192.727H657.953V206.748H650.449V192.727ZM650.449 163.107H657.953V177.128H650.449V163.107ZM650.449 133.29H657.953V147.31H650.449V133.29ZM650.449 103.67H657.953V117.69H650.449V103.67ZM604.637 163.897H613.918V175.548H604.637V163.897ZM604.637 131.513H613.918V143.163H604.637V131.513ZM604.637 99.1283H613.918V110.779H604.637V99.1283ZM604.637 66.9412H613.918V78.5917H604.637V66.9412ZM586.272 163.897H595.553V175.548H586.272V163.897ZM586.272 131.513H595.553V143.163H586.272V131.513ZM586.272 99.1283H595.553V110.779H586.272V99.1283ZM586.272 66.9412H595.553V78.5917H586.272V66.9412ZM567.908 163.897H577.189V175.548H567.908V163.897ZM567.908 131.513H577.189V143.163H567.908V131.513ZM567.908 99.1283H577.189V110.779H567.908V99.1283ZM567.908 66.9412H577.189V78.5917H567.908V66.9412ZM467.99 231.036H476.086V244.069H467.99V231.036ZM467.99 205.958H476.086V218.991H467.99V205.958ZM467.99 180.879H476.086V193.912H467.99V180.879ZM467.99 155.801H476.086V168.834H467.99V155.801ZM453.575 231.036H461.671V244.069H453.575V231.036ZM453.575 205.958H461.671V218.991H453.575V205.958ZM453.575 180.879H461.671V193.912H453.575V180.879ZM453.575 155.801H461.671V168.834H453.575V155.801ZM426.917 96.9561H432.841V112.951H426.917V96.9561ZM426.917 66.5463H432.841V82.541H426.917V66.5463ZM426.917 36.1364H432.841V52.1312H426.917V36.1364ZM415.069 231.036H423.165V244.069H415.069V231.036ZM415.069 205.958H423.165V218.991H415.069V205.958ZM415.069 180.879H423.165V193.912H415.069V180.879ZM415.069 155.801H423.165V168.834H415.069V155.801ZM400.851 231.036H408.947V244.069H400.851V231.036ZM400.851 205.958H408.947V218.991H400.851V205.958ZM400.851 180.879H408.947V193.912H400.851V180.879ZM400.851 155.801H408.947V168.834H400.851V155.801ZM304.685 245.846H314.163V255.522H304.685V245.846ZM304.685 226.889H314.163V236.565H304.685V226.889ZM304.685 207.932H314.163V217.608H304.685V207.932ZM304.685 188.976H314.163V198.651H304.685V188.976ZM304.685 169.821H314.163V179.497H304.685V169.821ZM304.685 150.865H314.163V160.54H304.685V150.865ZM304.685 131.908H314.163V141.584H304.685V131.908ZM304.685 112.951H314.163V122.627H304.685V112.951ZM233.399 229.061H238.731V242.094H233.399V229.061ZM233.399 203.983H238.731V217.016H233.399V203.983ZM233.399 178.905H238.731V191.938H233.399V178.905ZM233.399 153.827H238.731V166.859H233.399V153.827ZM233.399 128.748H238.731V141.781H233.399V128.748ZM233.399 103.67H238.731V116.703H233.399V103.67ZM233.399 78.5917H238.731V91.6245H233.399V78.5917ZM233.399 53.5135H238.731V66.5463H233.399V53.5135ZM223.921 229.061H229.253V242.094H223.921V229.061ZM223.921 203.983H229.253V217.016H223.921V203.983ZM223.921 178.905H229.253V191.938H223.921V178.905ZM223.921 153.827H229.253V166.859H223.921V153.827ZM223.921 128.748H229.253V141.781H223.921V128.748ZM223.921 103.67H229.253V116.703H223.921V103.67ZM223.921 78.5917H229.253V91.6245H223.921V78.5917ZM223.921 53.5135H229.253V66.5463H223.921V53.5135ZM198.843 229.061H204.174V242.094H198.843V229.061ZM198.843 203.983H204.174V217.016H198.843V203.983ZM198.843 178.905H204.174V191.938H198.843V178.905ZM198.843 153.827H204.174V166.859H198.843V153.827ZM198.843 128.748H204.174V141.781H198.843V128.748ZM198.843 103.67H204.174V116.703H198.843V103.67ZM198.843 78.5917H204.174V91.6245H198.843V78.5917ZM198.843 53.5135H204.174V66.5463H198.843V53.5135ZM189.562 229.061H194.893V242.094H189.562V229.061ZM189.562 203.983H194.893V217.016H189.562V203.983ZM189.562 178.905H194.893V191.938H189.562V178.905ZM189.562 153.827H194.893V166.859H189.562V153.827ZM189.562 128.748H194.893V141.781H189.562V128.748ZM189.562 103.67H194.893V116.703H189.562V103.67ZM189.562 78.5917H194.893V91.6245H189.562V78.5917ZM189.562 53.5135H194.893V66.5463H189.562V53.5135ZM164.484 229.061H169.815V242.094H164.484V229.061ZM164.484 203.983H169.815V217.016H164.484V203.983ZM164.484 178.905H169.815V191.938H164.484V178.905ZM164.484 153.827H169.815V166.859H164.484V153.827ZM164.484 128.748H169.815V141.781H164.484V128.748ZM164.484 103.67H169.815V116.703H164.484V103.67ZM164.484 78.5917H169.815V91.6245H164.484V78.5917ZM164.484 53.5135H169.815V66.5463H164.484V53.5135ZM155.203 229.061H160.534V242.094H155.203V229.061ZM155.203 203.983H160.534V217.016H155.203V203.983ZM155.203 178.905H160.534V191.938H155.203V178.905ZM155.203 153.827H160.534V166.859H155.203V153.827ZM155.203 128.748H160.534V141.781H155.203V128.748ZM155.203 103.67H160.534V116.703H155.203V103.67ZM155.203 78.5917H160.534V91.6245H155.203V78.5917ZM155.203 53.5135H160.534V66.5463H155.203V53.5135ZM123.213 208.327H129.729V235.578H123.213V208.327ZM123.213 164.687H129.729V191.938H123.213V164.687ZM110.378 208.327H116.894V235.578H110.378V208.327ZM110.378 164.687H116.894V191.938H110.378V164.687ZM97.5423 208.327H104.059V235.578H97.5423V208.327ZM97.5423 164.687H104.059V191.938H97.5423V164.687ZM56.4692 244.859H72.859V261.643H56.4692V244.859ZM56.4692 209.71H72.859V226.494H56.4692V209.71ZM56.4692 174.363H72.859V191.148H56.4692V174.363ZM56.4692 139.017H72.859V155.801H56.4692V139.017ZM56.4692 103.67H72.859V120.455H56.4692V103.67ZM21.9126 244.859H38.3023V261.643H21.9126V244.859ZM21.9126 209.71H38.3023V226.494H21.9126V209.71ZM21.9126 174.363H38.3023V191.148H21.9126V174.363ZM21.9126 139.017H38.3023V155.801H21.9126V139.017ZM21.9126 103.67H38.3023V120.455H21.9126V103.67ZM-12.6441 244.859H3.74563V261.643H-12.6441V244.859ZM-12.6441 209.71H3.74563V226.494H-12.6441V209.71ZM-12.6441 174.363H3.74563V191.148H-12.6441V174.363ZM-12.6441 139.017H3.74563V155.801H-12.6441V139.017ZM-12.6441 103.67H3.74563V120.455H-12.6441V103.67Z" fill="#E7B549"/>
</svg>
